<?xml version="1.0" encoding="UTF-8"?><svg xmlns="http://www.w3.org/2000/svg" xmlns:xlink="http://www.w3.org/1999/xlink" stroke-dasharray="none" shape-rendering="auto" font-family="'Dialog'" width="300" text-rendering="auto" fill-opacity="1" contentScriptType="text/ecmascript" color-interpolation="auto" color-rendering="auto" preserveAspectRatio="xMidYMid meet" font-size="12" viewBox="0 0 300 192" fill="black" stroke="black" image-rendering="auto" stroke-miterlimit="10" zoomAndPan="magnify" version="1.0" stroke-linecap="square" stroke-linejoin="miter" contentStyleType="text/css" font-style="normal" height="192" stroke-width="1" stroke-dashoffset="0" font-weight="normal" stroke-opacity="1">
<!--Generated by the Batik Graphics2D SVG Generator-->
<defs id="genericDefs"/>
<g>
<defs id="defs1">
<linearGradient x1="10" x2="10" y1="10" gradientUnits="userSpaceOnUse" y2="182" xlink:type="simple" xlink:actuate="onLoad" id="linearGradient1" xlink:show="other" spreadMethod="pad">
<stop stop-opacity="1" stop-color="white" offset="0%"/>
<stop stop-opacity="1" stop-color="rgb(225,225,135)" offset="100%"/>
</linearGradient>
<linearGradient x1="45" x2="45" y1="91" gradientUnits="userSpaceOnUse" y2="111" xlink:type="simple" xlink:actuate="onLoad" id="linearGradient2" xlink:show="other" spreadMethod="pad">
<stop stop-opacity="1" stop-color="white" offset="0%"/>
<stop stop-opacity="1" stop-color="rgb(195,209,213)" offset="100%"/>
</linearGradient>
<clipPath clipPathUnits="userSpaceOnUse" id="clipPath1">
<path d="M10 10 L10 181 L289 181 L289 10 Z"/>
</clipPath>
<clipPath clipPathUnits="userSpaceOnUse" id="clipPath2">
<path d="M120 12 L179 12 L179 31 L120 31 L120 12 Z"/>
</clipPath>
<clipPath clipPathUnits="userSpaceOnUse" id="clipPath3">
<path d="M54 56 L249 56 L249 143 L54 143 L54 56 Z"/>
</clipPath>
<clipPath clipPathUnits="userSpaceOnUse" id="clipPath4">
<path d="M94 59 L208 59 L208 78 L94 78 L94 59 Z"/>
</clipPath>
<clipPath clipPathUnits="userSpaceOnUse" id="clipPath5">
<path d="M54 77 L249 77 L249 143 L54 143 L54 77 Z"/>
</clipPath>
<clipPath clipPathUnits="userSpaceOnUse" id="clipPath6">
<path d="M45 91 L45 110 L64 110 L64 91 Z"/>
</clipPath>
<clipPath clipPathUnits="userSpaceOnUse" id="clipPath7">
<path d="M44 90 L66 90 L66 112 L44 112 L44 90 Z"/>
</clipPath>
<clipPath clipPathUnits="userSpaceOnUse" id="clipPath8">
<path d="M69 93 L151 93 L151 110 L69 110 L69 93 Z"/>
</clipPath>
<clipPath clipPathUnits="userSpaceOnUse" id="clipPath9">
<path d="M9 30 L291 30 L291 183 L9 183 L9 30 Z"/>
</clipPath>
<clipPath clipPathUnits="userSpaceOnUse" id="clipPath10">
<path d="M9 9 L291 9 L291 183 L9 183 L9 9 Z"/>
</clipPath>
</defs>
<g fill="url(#linearGradient1)" stroke-miterlimit="0" stroke-width="0" stroke="url(#linearGradient1)" stroke-linejoin="round">
<rect x="10" y="10" clip-path="url(#clipPath1)" width="280" height="172" stroke="none"/>
<text x="121" font-size="13" y="26" clip-path="url(#clipPath2)" fill="black" stroke="none" xml:space="preserve">System  </text>
<rect x="55" y="57" clip-path="url(#clipPath3)" fill="white" width="193" rx="0" ry="0" height="85" stroke="none"/>
<text x="95" font-size="13" y="73" clip-path="url(#clipPath4)" fill="black" stroke="none" xml:space="preserve">  hello: HelloWorld</text>
</g>
<g stroke-linecap="butt" stroke-width="1.1">
<line clip-path="url(#clipPath5)" fill="none" x1="55" x2="248" y1="78" y2="78"/>
<rect x="55" y="57" clip-path="url(#clipPath3)" fill="none" width="192" rx="0" ry="0" height="84"/>
<rect x="45" y="91" clip-path="url(#clipPath6)" fill="url(#linearGradient2)" width="20" height="20" stroke="none"/>
<rect x="45" y="91" clip-path="url(#clipPath7)" fill="none" width="19" rx="0" ry="0" height="19"/>
<text xml:space="preserve" x="70" y="106" clip-path="url(#clipPath8)" stroke="none">  start: IStart</text>
<line clip-path="url(#clipPath9)" fill="none" x1="10" x2="290" y1="31" y2="31"/>
<rect x="10" y="10" clip-path="url(#clipPath10)" fill="none" width="279" rx="0" ry="0" height="171"/>
</g>
</g>
</svg>
