<?xml version="1.0" encoding="UTF-8"?><svg xmlns="http://www.w3.org/2000/svg" xmlns:xlink="http://www.w3.org/1999/xlink" stroke-dasharray="none" shape-rendering="auto" font-family="'Dialog'" width="671" text-rendering="auto" fill-opacity="1" contentScriptType="text/ecmascript" color-interpolation="auto" color-rendering="auto" preserveAspectRatio="xMidYMid meet" font-size="12" viewBox="0 0 671 279" fill="black" stroke="black" image-rendering="auto" stroke-miterlimit="10" zoomAndPan="magnify" version="1.0" stroke-linecap="square" stroke-linejoin="miter" contentStyleType="text/css" font-style="normal" height="279" stroke-width="1" stroke-dashoffset="0" font-weight="normal" stroke-opacity="1">
<!--Generated by the Batik Graphics2D SVG Generator-->
<defs id="genericDefs"/>
<g>
<defs id="defs1">
<linearGradient x1="20" x2="20" y1="152" gradientUnits="userSpaceOnUse" y2="261" xlink:type="simple" xlink:actuate="onLoad" id="linearGradient1" xlink:show="other" spreadMethod="pad">
<stop stop-opacity="1" stop-color="white" offset="0%"/>
<stop stop-opacity="1" stop-color="rgb(225,225,135)" offset="100%"/>
</linearGradient>
<linearGradient x1="10" x2="10" y1="173" gradientUnits="userSpaceOnUse" y2="193" xlink:type="simple" xlink:actuate="onLoad" id="linearGradient2" xlink:show="other" spreadMethod="pad">
<stop stop-opacity="1" stop-color="white" offset="0%"/>
<stop stop-opacity="1" stop-color="rgb(195,209,213)" offset="100%"/>
</linearGradient>
<linearGradient x1="360" x2="360" y1="127" gradientUnits="userSpaceOnUse" y2="207" xlink:type="simple" xlink:actuate="onLoad" id="linearGradient3" xlink:show="other" spreadMethod="pad">
<stop stop-opacity="1" stop-color="rgb(255,255,204)" offset="0%"/>
<stop stop-opacity="1" stop-color="white" offset="100%"/>
</linearGradient>
<linearGradient x1="360" x2="360" y1="10" gradientUnits="userSpaceOnUse" y2="124" xlink:type="simple" xlink:actuate="onLoad" id="linearGradient4" xlink:show="other" spreadMethod="pad">
<stop stop-opacity="1" stop-color="rgb(255,255,204)" offset="0%"/>
<stop stop-opacity="1" stop-color="white" offset="100%"/>
</linearGradient>
<linearGradient x1="360" x2="360" y1="212" gradientUnits="userSpaceOnUse" y2="269" xlink:type="simple" xlink:actuate="onLoad" id="linearGradient5" xlink:show="other" spreadMethod="pad">
<stop stop-opacity="1" stop-color="rgb(255,255,204)" offset="0%"/>
<stop stop-opacity="1" stop-color="white" offset="100%"/>
</linearGradient>
<linearGradient x1="20" x2="20" y1="10" gradientUnits="userSpaceOnUse" y2="83" xlink:type="simple" xlink:actuate="onLoad" id="linearGradient6" xlink:show="other" spreadMethod="pad">
<stop stop-opacity="1" stop-color="white" offset="0%"/>
<stop stop-opacity="1" stop-color="rgb(195,215,221)" offset="100%"/>
</linearGradient>
<linearGradient x1="10" x2="10" y1="27" gradientUnits="userSpaceOnUse" y2="47" xlink:type="simple" xlink:actuate="onLoad" id="linearGradient7" xlink:show="other" spreadMethod="pad">
<stop stop-opacity="1" stop-color="white" offset="0%"/>
<stop stop-opacity="1" stop-color="rgb(195,209,213)" offset="100%"/>
</linearGradient>
<clipPath clipPathUnits="userSpaceOnUse" id="clipPath1">
<path d="M20 152 L20 260 L280 260 L280 152 Z"/>
</clipPath>
<clipPath clipPathUnits="userSpaceOnUse" id="clipPath2">
<path d="M112 154 L188 154 L188 173 L112 173 L112 154 Z"/>
</clipPath>
<clipPath clipPathUnits="userSpaceOnUse" id="clipPath3">
<path d="M64 208 L229 208 L229 250 L64 250 L64 208 Z"/>
</clipPath>
<clipPath clipPathUnits="userSpaceOnUse" id="clipPath4">
<path d="M71 213 L224 213 L224 230 L71 230 L71 213 Z"/>
</clipPath>
<clipPath clipPathUnits="userSpaceOnUse" id="clipPath5">
<path d="M75 229 L219 229 L219 246 L75 246 L75 229 Z"/>
</clipPath>
<clipPath clipPathUnits="userSpaceOnUse" id="clipPath6">
<path d="M19 172 L282 172 L282 262 L19 262 L19 172 Z"/>
</clipPath>
<clipPath clipPathUnits="userSpaceOnUse" id="clipPath7">
<path d="M19 151 L282 151 L282 262 L19 262 L19 151 Z"/>
</clipPath>
<clipPath clipPathUnits="userSpaceOnUse" id="clipPath8">
<path d="M10 173 L10 192 L29 192 L29 173 Z"/>
</clipPath>
<clipPath clipPathUnits="userSpaceOnUse" id="clipPath9">
<path d="M9 172 L31 172 L31 194 L9 194 L9 172 Z"/>
</clipPath>
<clipPath clipPathUnits="userSpaceOnUse" id="clipPath10">
<path d="M34 175 L138 175 L138 192 L34 192 L34 175 Z"/>
</clipPath>
<clipPath clipPathUnits="userSpaceOnUse" id="clipPath11">
<path d="M360 127 L360 206 L660 206 L660 139 L648 127 Z"/>
</clipPath>
<clipPath clipPathUnits="userSpaceOnUse" id="clipPath12">
<path d="M365 132 L640 132 L640 202 L365 202 L365 132 Z"/>
</clipPath>
<clipPath clipPathUnits="userSpaceOnUse" id="clipPath13">
<path d="M359 126 L662 126 L662 208 L359 208 L359 126 Z"/>
</clipPath>
<clipPath clipPathUnits="userSpaceOnUse" id="clipPath14">
<path d="M360 10 L360 123 L660 123 L660 22 L648 10 Z"/>
</clipPath>
<clipPath clipPathUnits="userSpaceOnUse" id="clipPath15">
<path d="M365 15 L644 15 L644 119 L365 119 L365 15 Z"/>
</clipPath>
<clipPath clipPathUnits="userSpaceOnUse" id="clipPath16">
<path d="M359 9 L662 9 L662 125 L359 125 L359 9 Z"/>
</clipPath>
<clipPath clipPathUnits="userSpaceOnUse" id="clipPath17">
<path d="M360 212 L360 268 L660 268 L660 224 L648 212 Z"/>
</clipPath>
<clipPath clipPathUnits="userSpaceOnUse" id="clipPath18">
<path d="M365 217 L641 217 L641 264 L365 264 L365 217 Z"/>
</clipPath>
<clipPath clipPathUnits="userSpaceOnUse" id="clipPath19">
<path d="M359 211 L662 211 L662 270 L359 270 L359 211 Z"/>
</clipPath>
<clipPath clipPathUnits="userSpaceOnUse" id="clipPath20">
<path d="M20 10 L20 82 L280 82 L280 10 Z"/>
</clipPath>
<clipPath clipPathUnits="userSpaceOnUse" id="clipPath21">
<path d="M126 12 L175 12 L175 29 L126 29 L126 12 Z"/>
</clipPath>
<clipPath clipPathUnits="userSpaceOnUse" id="clipPath22">
<path d="M19 28 L282 28 L282 84 L19 84 L19 28 Z"/>
</clipPath>
<clipPath clipPathUnits="userSpaceOnUse" id="clipPath23">
<path d="M19 9 L282 9 L282 84 L19 84 L19 9 Z"/>
</clipPath>
<clipPath clipPathUnits="userSpaceOnUse" id="clipPath24">
<path d="M10 27 L10 46 L29 46 L29 27 Z"/>
</clipPath>
<clipPath clipPathUnits="userSpaceOnUse" id="clipPath25">
<path d="M9 26 L31 26 L31 48 L9 48 L9 26 Z"/>
</clipPath>
<clipPath clipPathUnits="userSpaceOnUse" id="clipPath26">
<path d="M34 29 L138 29 L138 46 L34 46 L34 29 Z"/>
</clipPath>
<clipPath clipPathUnits="userSpaceOnUse" id="clipPath27">
<path d="M-1 -1 L672 -1 L672 280 L-1 280 L-1 -1 Z"/>
</clipPath>
<clipPath clipPathUnits="userSpaceOnUse" id="clipPath28">
<path d="M131 82 L150 82 L150 95 L131 95 L131 82 Z"/>
</clipPath>
</defs>
<g fill="url(#linearGradient1)" stroke-miterlimit="0" stroke-width="0" stroke="url(#linearGradient1)" stroke-linejoin="round">
<rect x="20" y="152" clip-path="url(#clipPath1)" width="261" height="109" stroke="none"/>
<text x="113" font-size="13" y="168" clip-path="url(#clipPath2)" fill="black" stroke="none" xml:space="preserve">HelloWorld  </text>
<rect x="65" y="209" clip-path="url(#clipPath3)" fill="white" width="163" rx="0" ry="0" height="40" stroke="none"/>
<text x="72" y="226" clip-path="url(#clipPath4)" fill="black" stroke="none" xml:space="preserve">«ConfigurationProperty»</text>
<text x="76" y="242" clip-path="url(#clipPath5)" fill="black" stroke="none" xml:space="preserve"> + message: String [1]</text>
</g>
<g stroke-linecap="butt" stroke-width="1.1">
<rect x="65" y="209" clip-path="url(#clipPath3)" fill="none" width="162" rx="0" ry="0" height="39"/>
<line clip-path="url(#clipPath6)" fill="none" x1="20" x2="281" y1="173" y2="173"/>
<rect x="20" y="152" clip-path="url(#clipPath7)" fill="none" width="260" rx="0" ry="0" height="108"/>
<rect x="10" y="173" clip-path="url(#clipPath8)" fill="url(#linearGradient2)" width="20" height="20" stroke="none"/>
<rect x="10" y="173" clip-path="url(#clipPath9)" fill="none" width="19" rx="0" ry="0" height="19"/>
<text xml:space="preserve" x="35" y="188" clip-path="url(#clipPath10)" stroke="none">  start: IStart [1]</text>
<rect x="360" y="127" clip-path="url(#clipPath11)" fill="url(#linearGradient3)" width="301" height="80" stroke="none"/>
<text x="366" font-size="13" y="146" clip-path="url(#clipPath12)" stroke="none" xml:space="preserve">Simple HelloWorld component that prints a</text>
<text x="366" font-size="13" y="163" clip-path="url(#clipPath12)" stroke="none" xml:space="preserve">message in its "run" operation that is</text>
<text x="366" font-size="13" y="180" clip-path="url(#clipPath12)" stroke="none" xml:space="preserve">provided via the "start" port</text>
<line clip-path="url(#clipPath13)" fill="none" x1="360" x2="648" y1="127" y2="127"/>
<line clip-path="url(#clipPath13)" fill="none" x1="648" x2="660" y1="127" y2="139"/>
<line clip-path="url(#clipPath13)" fill="none" x1="660" x2="660" y1="139" y2="206"/>
<line clip-path="url(#clipPath13)" fill="none" x1="660" x2="360" y1="206" y2="206"/>
<line clip-path="url(#clipPath13)" fill="none" x1="360" x2="360" y1="206" y2="127"/>
<line clip-path="url(#clipPath13)" fill="none" x1="360" x2="360" y1="127" y2="127"/>
<line clip-path="url(#clipPath13)" fill="none" x1="648" x2="648" y1="127" y2="139"/>
<line clip-path="url(#clipPath13)" fill="none" x1="648" x2="661" y1="139" y2="139"/>
<rect x="360" y="10" clip-path="url(#clipPath14)" fill="url(#linearGradient4)" width="301" height="114" stroke="none"/>
<text x="366" font-size="13" y="29" clip-path="url(#clipPath15)" stroke="none" xml:space="preserve">Part of the Qompass core model library.</text>
<text x="366" font-size="13" y="46" clip-path="url(#clipPath15)" stroke="none" xml:space="preserve">Provides the specific port "start". The "run"</text>
<text x="366" font-size="13" y="63" clip-path="url(#clipPath15)" stroke="none" xml:space="preserve">operation (defined within interface IStart) of</text>
<text x="366" font-size="13" y="80" clip-path="url(#clipPath15)" stroke="none" xml:space="preserve">this port is called by generated boot-code</text>
<text x="366" font-size="13" y="97" clip-path="url(#clipPath15)" stroke="none" xml:space="preserve">after instantiation and configuration of a</text>
<text x="366" font-size="13" y="114" clip-path="url(#clipPath15)" stroke="none" xml:space="preserve">component. </text>
<line clip-path="url(#clipPath16)" fill="none" x1="360" x2="648" y1="10" y2="10"/>
<line clip-path="url(#clipPath16)" fill="none" x1="648" x2="660" y1="10" y2="22"/>
<line clip-path="url(#clipPath16)" fill="none" x1="660" x2="660" y1="22" y2="123"/>
<line clip-path="url(#clipPath16)" fill="none" x1="660" x2="360" y1="123" y2="123"/>
<line clip-path="url(#clipPath16)" fill="none" x1="360" x2="360" y1="123" y2="10"/>
<line clip-path="url(#clipPath16)" fill="none" x1="360" x2="360" y1="10" y2="10"/>
<line clip-path="url(#clipPath16)" fill="none" x1="648" x2="648" y1="10" y2="22"/>
<line clip-path="url(#clipPath16)" fill="none" x1="648" x2="661" y1="22" y2="22"/>
<rect x="360" y="212" clip-path="url(#clipPath17)" fill="url(#linearGradient5)" width="301" height="57" stroke="none"/>
<text xml:space="preserve" x="366" y="230" clip-path="url(#clipPath18)" stroke="none">Configuration attribute within the Hello</text>
<text xml:space="preserve" x="366" y="245" clip-path="url(#clipPath18)" stroke="none">World component. Its value is configured on</text>
<text xml:space="preserve" x="366" y="260" clip-path="url(#clipPath18)" stroke="none">the instance level.</text>
<line clip-path="url(#clipPath19)" fill="none" x1="360" x2="648" y1="212" y2="212"/>
<line clip-path="url(#clipPath19)" fill="none" x1="648" x2="660" y1="212" y2="224"/>
<line clip-path="url(#clipPath19)" fill="none" x1="660" x2="660" y1="224" y2="268"/>
<line clip-path="url(#clipPath19)" fill="none" x1="660" x2="360" y1="268" y2="268"/>
<line clip-path="url(#clipPath19)" fill="none" x1="360" x2="360" y1="268" y2="212"/>
<line clip-path="url(#clipPath19)" fill="none" x1="360" x2="360" y1="212" y2="212"/>
<line clip-path="url(#clipPath19)" fill="none" x1="648" x2="648" y1="212" y2="224"/>
<line clip-path="url(#clipPath19)" fill="none" x1="648" x2="661" y1="224" y2="224"/>
<rect x="20" y="10" clip-path="url(#clipPath20)" fill="url(#linearGradient6)" width="261" height="73" stroke="none"/>
<text x="127" y="25" clip-path="url(#clipPath21)" font-style="italic" stroke="none" xml:space="preserve">Cstart  </text>
<line clip-path="url(#clipPath22)" fill="none" x1="20" x2="281" y1="29" y2="29"/>
<rect x="20" y="10" clip-path="url(#clipPath23)" fill="none" width="260" rx="0" ry="0" height="72"/>
<rect x="10" y="27" clip-path="url(#clipPath24)" fill="url(#linearGradient7)" width="20" height="20" stroke="none"/>
<rect x="10" y="27" clip-path="url(#clipPath25)" fill="none" width="19" rx="0" ry="0" height="19"/>
<text xml:space="preserve" x="35" y="42" clip-path="url(#clipPath26)" stroke="none">  start: IStart [1]</text>
<line clip-path="url(#clipPath27)" fill="none" text-rendering="optimizeLegibility" x1="140" x2="140" y1="152" y2="83"/>
</g>
<g stroke-linecap="butt" font-size="13" fill="white" text-rendering="optimizeLegibility" stroke="white" stroke-width="1.1">
<polygon clip-path="url(#clipPath28)" points=" 140 83 148 93 132 93" stroke="none"/>
<polygon fill="none" clip-path="url(#clipPath28)" points=" 140 83 148 93 132 93" stroke="black"/>
<line clip-path="url(#clipPath27)" fill="none" x1="360" x2="281" y1="52" y2="52" stroke-dasharray="6.6,3.3" stroke="black"/>
<line clip-path="url(#clipPath27)" fill="none" x1="360" x2="281" y1="172" y2="172" stroke-dasharray="6.6,3.3" stroke="black"/>
</g>
<g text-rendering="optimizeLegibility" stroke-width="1.1" stroke-dasharray="6.6,3.3" stroke-linecap="butt">
<line clip-path="url(#clipPath27)" fill="none" x1="360" x2="294" y1="232" y2="232"/>
<line clip-path="url(#clipPath27)" fill="none" x1="294" x2="228" y1="232" y2="232"/>
</g>
</g>
</svg>
