<?xml version="1.0" encoding="UTF-8"?><svg xmlns="http://www.w3.org/2000/svg" xmlns:xlink="http://www.w3.org/1999/xlink" stroke-dasharray="none" shape-rendering="auto" font-family="'Dialog'" width="648" text-rendering="auto" fill-opacity="1" contentScriptType="text/ecmascript" color-interpolation="auto" color-rendering="auto" preserveAspectRatio="xMidYMid meet" font-size="12" viewBox="0 0 648 254" fill="black" stroke="black" image-rendering="auto" stroke-miterlimit="10" zoomAndPan="magnify" version="1.0" stroke-linecap="square" stroke-linejoin="miter" contentStyleType="text/css" font-style="normal" height="254" stroke-width="1" stroke-dashoffset="0" font-weight="normal" stroke-opacity="1">
<!--Generated by the Batik Graphics2D SVG Generator-->
<defs id="genericDefs"/>
<g>
<defs id="defs1">
<linearGradient x1="10" x2="10" y1="10" gradientUnits="userSpaceOnUse" y2="164" xlink:type="simple" xlink:actuate="onLoad" id="linearGradient1" xlink:show="other" spreadMethod="pad">
<stop stop-opacity="1" stop-color="white" offset="0%"/>
<stop stop-opacity="1" stop-color="rgb(166,193,152)" offset="100%"/>
</linearGradient>
<linearGradient x1="370" x2="370" y1="10" gradientUnits="userSpaceOnUse" y2="117" xlink:type="simple" xlink:actuate="onLoad" id="linearGradient2" xlink:show="other" spreadMethod="pad">
<stop stop-opacity="1" stop-color="white" offset="0%"/>
<stop stop-opacity="1" stop-color="rgb(195,209,213)" offset="100%"/>
</linearGradient>
<linearGradient x1="361" x2="361" y1="164" gradientUnits="userSpaceOnUse" y2="244" xlink:type="simple" xlink:actuate="onLoad" id="linearGradient3" xlink:show="other" spreadMethod="pad">
<stop stop-opacity="1" stop-color="rgb(255,255,204)" offset="0%"/>
<stop stop-opacity="1" stop-color="white" offset="100%"/>
</linearGradient>
<clipPath clipPathUnits="userSpaceOnUse" id="clipPath1">
<path d="M10 10 L10 163 L310 163 L310 10 Z"/>
</clipPath>
<clipPath clipPathUnits="userSpaceOnUse" id="clipPath2">
<path d="M128 12 L192 12 L192 31 L128 31 L128 12 Z"/>
</clipPath>
<clipPath clipPathUnits="userSpaceOnUse" id="clipPath3">
<path d="M54 55 L273 55 L273 139 L54 139 L54 55 Z"/>
</clipPath>
<clipPath clipPathUnits="userSpaceOnUse" id="clipPath4">
<path d="M85 87 L243 87 L243 106 L85 106 L85 87 Z"/>
</clipPath>
<clipPath clipPathUnits="userSpaceOnUse" id="clipPath5">
<path d="M9 30 L312 30 L312 165 L9 165 L9 30 Z"/>
</clipPath>
<clipPath clipPathUnits="userSpaceOnUse" id="clipPath6">
<path d="M9 9 L312 9 L312 165 L9 165 L9 9 Z"/>
</clipPath>
<clipPath clipPathUnits="userSpaceOnUse" id="clipPath7">
<path d="M370 10 L370 116 L607 116 L607 10 Z"/>
</clipPath>
<clipPath clipPathUnits="userSpaceOnUse" id="clipPath8">
<path d="M464 9 L516 9 L516 28 L464 28 L464 9 Z"/>
</clipPath>
<clipPath clipPathUnits="userSpaceOnUse" id="clipPath9">
<path d="M450 27 L529 27 L529 46 L450 46 L450 27 Z"/>
</clipPath>
<clipPath clipPathUnits="userSpaceOnUse" id="clipPath10">
<path d="M463 46 L517 46 L517 63 L463 63 L463 46 Z"/>
</clipPath>
<clipPath clipPathUnits="userSpaceOnUse" id="clipPath11">
<path d="M375 62 L532 62 L532 79 L375 79 L375 62 Z"/>
</clipPath>
<clipPath clipPathUnits="userSpaceOnUse" id="clipPath12">
<path d="M375 77 L435 77 L435 94 L375 94 L375 77 Z"/>
</clipPath>
<clipPath clipPathUnits="userSpaceOnUse" id="clipPath13">
<path d="M375 92 L436 92 L436 109 L375 109 L375 92 Z"/>
</clipPath>
<clipPath clipPathUnits="userSpaceOnUse" id="clipPath14">
<path d="M370 45 L609 45 L609 118 L370 118 L370 45 Z"/>
</clipPath>
<clipPath clipPathUnits="userSpaceOnUse" id="clipPath15">
<path d="M369 9 L609 9 L609 118 L369 118 L369 9 Z"/>
</clipPath>
<clipPath clipPathUnits="userSpaceOnUse" id="clipPath16">
<path d="M361 164 L361 243 L637 243 L637 176 L625 164 Z"/>
</clipPath>
<clipPath clipPathUnits="userSpaceOnUse" id="clipPath17">
<path d="M366 169 L622 169 L622 239 L366 239 L366 169 Z"/>
</clipPath>
<clipPath clipPathUnits="userSpaceOnUse" id="clipPath18">
<path d="M360 163 L639 163 L639 245 L360 245 L360 163 Z"/>
</clipPath>
<clipPath clipPathUnits="userSpaceOnUse" id="clipPath19">
<path d="M-1 -1 L649 -1 L649 255 L-1 255 L-1 -1 Z"/>
</clipPath>
</defs>
<g fill="url(#linearGradient1)" stroke-miterlimit="0" stroke-width="0" stroke="url(#linearGradient1)" stroke-linejoin="round">
<rect x="10" y="10" clip-path="url(#clipPath1)" width="301" height="154" stroke="none"/>
<text x="129" font-size="13" y="26" clip-path="url(#clipPath2)" fill="black" stroke="none" xml:space="preserve">Platform  </text>
<rect x="55" y="56" clip-path="url(#clipPath3)" fill="white" width="217" rx="0" ry="0" height="82" stroke="none"/>
<text x="86" font-size="13" y="101" clip-path="url(#clipPath4)" fill="black" stroke="none" xml:space="preserve">  monoNode: MonoNode</text>
</g>
<g stroke-linecap="butt" stroke-width="1.1">
<rect x="55" y="56" clip-path="url(#clipPath3)" fill="none" width="216" rx="0" ry="0" height="81"/>
<line clip-path="url(#clipPath5)" fill="none" x1="10" x2="311" y1="31" y2="31"/>
<rect x="10" y="10" clip-path="url(#clipPath6)" fill="none" width="300" rx="0" ry="0" height="153"/>
<rect x="370" y="10" clip-path="url(#clipPath7)" fill="url(#linearGradient2)" width="238" height="107" stroke="none"/>
<text x="465" font-size="13" y="23" clip-path="url(#clipPath8)" stroke="none" xml:space="preserve">«Node»</text>
<text x="451" font-size="13" y="41" clip-path="url(#clipPath9)" stroke="none" xml:space="preserve">MonoNode  </text>
<text xml:space="preserve" x="464" y="59" clip-path="url(#clipPath10)" stroke="none">«Target»</text>
<text xml:space="preserve" x="376" y="75" clip-path="url(#clipPath11)" stroke="none">targetArch=StandardPC </text>
<text xml:space="preserve" x="376" y="90" clip-path="url(#clipPath12)" stroke="none">availRAM </text>
<text xml:space="preserve" x="376" y="105" clip-path="url(#clipPath13)" stroke="none">availROM </text>
<line clip-path="url(#clipPath14)" fill="none" x1="370" x2="608" y1="46" y2="46"/>
<line clip-path="url(#clipPath15)" fill="none" x1="370" x2="608" y1="46" y2="46"/>
<rect x="370" y="10" clip-path="url(#clipPath15)" fill="none" width="237" rx="0" ry="0" height="106"/>
<rect x="361" y="164" clip-path="url(#clipPath16)" fill="url(#linearGradient3)" width="277" height="80" stroke="none"/>
<text x="367" font-size="13" y="183" clip-path="url(#clipPath17)" stroke="none" xml:space="preserve">Simple single node configuration.</text>
<text x="367" font-size="13" y="200" clip-path="url(#clipPath17)" stroke="none" xml:space="preserve">TargetOS is set to Linux, but will work on</text>
<text x="367" font-size="13" y="217" clip-path="url(#clipPath17)" stroke="none" xml:space="preserve">any OS, since this simple example does</text>
<text x="367" font-size="13" y="234" clip-path="url(#clipPath17)" stroke="none" xml:space="preserve">not use the OS abstraction layer</text>
<line clip-path="url(#clipPath18)" fill="none" x1="361" x2="625" y1="164" y2="164"/>
<line clip-path="url(#clipPath18)" fill="none" x1="625" x2="637" y1="164" y2="176"/>
<line clip-path="url(#clipPath18)" fill="none" x1="637" x2="637" y1="176" y2="243"/>
<line clip-path="url(#clipPath18)" fill="none" x1="637" x2="361" y1="243" y2="243"/>
<line clip-path="url(#clipPath18)" fill="none" x1="361" x2="361" y1="243" y2="164"/>
<line clip-path="url(#clipPath18)" fill="none" x1="361" x2="361" y1="164" y2="164"/>
<line clip-path="url(#clipPath18)" fill="none" x1="625" x2="625" y1="164" y2="176"/>
<line clip-path="url(#clipPath18)" fill="none" x1="625" x2="638" y1="176" y2="176"/>
<line clip-path="url(#clipPath19)" fill="none" text-rendering="optimizeLegibility" x1="471" x2="471" y1="164" y2="117" stroke-dasharray="6.6,3.3"/>
</g>
</g>
</svg>
