<?xml version="1.0" encoding="UTF-8" standalone="no"?>
<!-- Created with Inkscape (http://www.inkscape.org/) -->

<svg
   xmlns:dc="http://purl.org/dc/elements/1.1/"
   xmlns:cc="http://creativecommons.org/ns#"
   xmlns:rdf="http://www.w3.org/1999/02/22-rdf-syntax-ns#"
   xmlns:svg="http://www.w3.org/2000/svg"
   xmlns="http://www.w3.org/2000/svg"
   xmlns:sodipodi="http://sodipodi.sourceforge.net/DTD/sodipodi-0.dtd"
   xmlns:inkscape="http://www.inkscape.org/namespaces/inkscape"
   id="svg4122"
   version="1.1"
   inkscape:version="0.48.4 r9939"
   width="216"
   height="511"
   sodipodi:docname="man-42934_640.svg">
  <metadata
     id="metadata4128">
    <rdf:RDF>
      <cc:Work
         rdf:about="">
        <dc:format>image/svg+xml</dc:format>
        <dc:type
           rdf:resource="http://purl.org/dc/dcmitype/StillImage" />
        <dc:title></dc:title>
      </cc:Work>
    </rdf:RDF>
  </metadata>
  <defs
     id="defs4126" />
  <sodipodi:namedview
     pagecolor="#ffffff"
     bordercolor="#ffffff"
     borderopacity="1"
     objecttolerance="10"
     gridtolerance="10"
     guidetolerance="10"
     inkscape:pageopacity="0"
     inkscape:pageshadow="2"
     inkscape:window-width="1535"
     inkscape:window-height="876"
     id="namedview4124"
     showgrid="false"
     inkscape:zoom="0.46183953"
     inkscape:cx="108"
     inkscape:cy="255.5"
     inkscape:window-x="65"
     inkscape:window-y="132"
     inkscape:window-maximized="1"
     inkscape:current-layer="svg4122" />
  <g
     id="g2982"
     transform="translate(2.1652585,2.1652539)">
    <path
       style="fill:#fefefe"
       d="M 0,255.5 0,0 108,0 216,0 216,255.5 216,511 108,511 0,511 0,255.5 z"
       id="path2998"
       inkscape:connector-curvature="0" />
    <path
       style="fill:#bbbbbb"
       d="M 51.499968,507.16298 C 47.876446,504.9532 42.307664,498.76297 40.683013,495.13891 39.82279,493.22004 39.363573,472.59528 39,419.55001 l -0.5,-72.95 -6.20498,-2.22099 C 20.464221,340.14434 11.199478,331.6801 5.610357,320 L 2.5,313.5 l 0,-69.05186 0,-69.05187 3.7525641,-7.59279 c 5.8467339,-11.83007 18.0035509,-21.81818 29.5543089,-24.282 3.138707,-0.6695 3.774913,-0.25259 12.510513,8.19831 9.416978,9.11007 17.489071,14.56007 27.726192,18.71979 24.384332,9.90824 52.039032,7.87326 75.570932,-5.56091 4.49851,-2.56816 11.58267,-8.07826 17.13286,-13.32604 l 9.46297,-8.94736 5.14483,1.79456 c 11.62204,4.05387 21.61108,13.08587 26.95985,24.37684 L 213.5,175.5 l 0,69 0,69 -3.11036,6.5 c -5.58912,11.6801 -14.85386,20.14434 -26.68466,24.37902 l -6.20498,2.22099 -0.5,72.95 c -0.36887,53.81779 -0.81613,73.65751 -1.70537,75.64771 -1.65167,3.69657 -8.04791,10.62334 -11.41982,12.36702 -2.30989,1.19449 -11.71666,1.43463 -56.07515,1.43152 -49.880782,-0.004 -53.492095,-0.12109 -56.299692,-1.83328 z M 89.662151,147.9293 c -4.310817,-1.05924 -11.960817,-4.0446 -17,-6.63413 C 65.369168,137.54746 61.765917,134.84147 55,128.03116 45.404396,118.37259 40.926255,111.42782 36.83043,99.8535 31.598216,85.067878 31.317722,66.931707 36.100782,52.675933 40.133268,40.657222 44.948939,33.007138 54.478147,23.481998 64.663281,13.301213 72.778279,8.1292287 84.301622,4.474412 91.198967,2.2868063 93.887865,2 107.5,2 c 13.61214,0 16.30103,0.2868063 23.19838,2.474412 11.29283,3.5817075 19.65028,8.862975 29.30726,18.519953 9.58225,9.582253 14.79971,17.799348 18.73465,29.505635 2.43759,7.251739 2.69123,9.402989 2.71173,23 0.0209,13.879305 -0.18622,15.597704 -2.77247,23 -4.13564,11.8369 -9.92387,20.94531 -19.08341,30.02982 -18.25299,18.10347 -45.00606,25.52469 -69.933989,19.39948 z"
       id="path2996"
       inkscape:connector-curvature="0" />
    <path
       style="fill:#bbbbbb"
       d="m 53.270929,506.91929 c -4.826134,-2.40514 -9.88266,-7.74578 -11.896025,-12.56444 -1.122703,-2.68701 -1.377713,-16.45771 -1.390217,-75.07273 C 39.976265,379.80195 39.638765,347.05 39.234687,346.5 38.830609,345.95 36.025,344.66876 33,343.6528 18.209241,338.68527 7.5912869,327.0462 3.491668,311.3067 1.246721,302.68777 1.2811461,186.18006 3.5311922,177.54155 7.8060026,161.12945 22.059376,146.64968 36.198679,144.35518 c 3.232988,-0.52464 3.818378,-0.2158 6.916617,3.64907 1.861587,2.32221 6.701747,6.89366 10.755911,10.15876 23.033104,18.55018 52.890453,24.01128 81.323493,14.87458 12.78215,-4.10742 23.3776,-10.59437 33.94806,-20.78432 l 8.83697,-8.51887 4.59136,1.2855 c 13.83682,3.87407 25.85138,16.98673 29.93724,32.6734 2.21337,8.4977 2.21337,125.1157 0,133.6134 -4.10134,15.74612 -14.74634,27.41014 -29.50833,32.33309 -3.025,1.00881 -5.725,1.98981 -6,2.18001 -0.275,0.1902 -0.725,33.57013 -1,74.17764 l -0.5,73.83182 -3.02793,4.30744 c -1.66536,2.3691 -4.96621,5.67001 -7.33523,7.33537 l -4.3073,3.02793 -51.66477,0.26344 c -50.807831,0.25908 -51.734916,0.22849 -55.893841,-1.84415 z M 89.077186,146.94622 C 68.02726,141.43431 50.502763,127.05164 41.014127,107.5 35.393989,95.919524 33.675781,88.448738 33.654437,75.5 33.632489,62.184152 36.068508,52.374995 42.314479,40.628478 51.867996,22.661608 70.63577,8.1278522 90.257502,3.5014236 c 8.07279,-1.9034092 26.412208,-1.9034092 34.484998,0 16.67281,3.9311298 32.6397,14.7808694 42.90156,29.1522424 30.16361,42.24311 8.28943,101.447614 -42.25811,114.375504 -10.29447,2.63288 -26.0747,2.59683 -36.308764,-0.0829 z"
       id="path2994"
       inkscape:connector-curvature="0" />
    <path
       style="fill:#bbbbbb"
       d="m 56.137077,507.63086 c -4.80575,-1.73913 -10.80125,-7.085 -13.401914,-11.94978 L 40.5,491.5 40.224985,418.28181 39.949971,345.06362 35.741731,343.93046 C 25.043914,341.04983 13.66333,332.33383 8.7531506,323.26082 2.8389596,312.3326 2.9044918,313.29633 3.215396,241.82172 L 3.5,176.39333 7.2525641,168.80201 c 5.8311029,-11.79615 17.9571129,-21.82583 28.4454749,-23.52786 3.080154,-0.49984 3.963781,0.0787 12.101203,7.92321 4.828131,4.65433 11.910946,10.31982 15.739589,12.58998 26.496502,15.71088 59.579339,16.31843 86.395529,1.58661 8.25843,-4.53688 12.83019,-8.02096 21.2333,-16.18161 5.94822,-5.7766 6.9923,-6.41035 9.67639,-5.87353 10.50921,2.10184 22.196,11.93732 27.90339,23.4832 l 3.75256,7.59132 0.2846,65.42839 c 0.30552,70.23517 0.30786,70.19623 -4.82941,80.26611 -4.7943,9.39761 -16.95975,19.00172 -27.68018,21.85234 l -4.22498,1.12345 -0.27502,73.21819 L 175.5,491.5 l -2.21551,4.14255 c -2.80216,5.23949 -9.12708,10.69411 -14.14293,12.19689 -5.58022,1.67188 -98.327166,1.48406 -103.004483,-0.20858 z M 96.535728,147.94951 C 80.865228,145.50309 67.526709,138.61756 56,127.02439 46.252587,117.22078 42.054374,110.63805 37.655949,98.261215 34.727036,90.019475 34.544384,88.669904 34.575432,75.5 34.604456,63.188926 34.917644,60.575114 37.171542,53.833349 41.354311,41.322023 46.338362,33.448602 56.396927,23.462566 63.708788,16.203428 67.172545,13.6025 74,10.244458 86.425186,4.1332057 93.316864,2.5503634 107.5,2.5503634 c 14.18314,0 21.07481,1.5828423 33.5,7.6940946 6.89174,3.389662 10.20291,5.890616 17.50025,13.218108 9.84441,9.885077 14.37573,16.729013 18.02632,27.226276 9.90502,28.481886 2.45044,58.257478 -19.72552,78.789018 -7.84023,7.25884 -20.96318,14.41498 -31.15265,16.98799 -7.67904,1.93909 -21.63852,2.6505 -29.112672,1.48366 z"
       id="path2992"
       inkscape:connector-curvature="0" />
    <path
       style="fill:#bbbbbb"
       d="M 57.820554,507.60501 C 51.450685,505.88984 46.458565,501.83845 43.485423,495.97123 L 41,491.06649 41,418.73324 C 41,343.81826 41.009674,344 37.021788,344 36.153772,344 32.268665,342.47846 28.388217,340.61881 15.894569,334.63139 6.5029314,322.49641 4.0052804,309.11351 3.4024117,305.88322 3,279.64773 3,243.57361 3,178.32879 3.040566,177.77367 8.6118838,166.77921 12.022792,160.0481 20.116583,152.22125 27.277677,148.72902 c 10.046836,-4.89951 10.091736,-4.88935 19.828219,4.48509 10.27432,9.89227 21.136507,16.61893 33.445204,20.71171 32.18276,10.70111 66.60703,2.24296 90.83458,-22.31834 l 6.88569,-6.98054 5.11431,1.8088 c 10.59962,3.7488 19.60851,11.57552 24.4985,21.28376 5.01001,9.94649 5.11582,11.51539 5.11582,75.85411 0,36.07412 -0.40241,62.30961 -1.00528,65.5399 -2.49765,13.3829 -11.88929,25.51788 -24.38294,31.5053 C 183.73134,342.47846 179.84623,344 178.97821,344 174.99033,344 175,343.81826 175,418.73324 l 0,72.33325 -2.52159,4.97612 c -3.0683,6.055 -8.8068,10.43316 -15.57827,11.88539 -7.46107,1.60011 -92.972767,1.32135 -99.079586,-0.32299 z M 89.229512,145.9849 C 63.693532,139.2941 42.625825,117.96964 36.361287,92.472368 33.840242,82.211472 34.065843,66.605762 36.880662,56.545067 44.104822,30.724556 64.948757,10.513087 90.680945,4.3772431 c 8.848486,-2.1099229 24.789625,-2.1099229 33.638105,0 C 154.16602,11.494256 176.8325,37.250912 179.86861,67.5 c 3.66012,36.4662 -19.33965,69.5411 -54.63505,78.56814 -10.06753,2.57484 -25.999847,2.53801 -36.004048,-0.0832 z"
       id="path2990"
       inkscape:connector-curvature="0" />
    <path
       style="fill:#bbbbbb"
       d="M 55,505.91597 C 49.401986,503.37807 46.418674,500.63962 43.652682,495.5 41.518755,491.53485 41.495644,490.85963 41,418 l -0.5,-73.5 -5.033822,-1.61253 C 20.424924,338.06917 10.362096,328.26169 5.9750165,314.14466 4.0960542,308.09842 4,304.71049 4,244.48376 c 0,-59.32249 0.1192024,-63.68857 1.8945599,-69.3928 2.314309,-7.43589 6.9045421,-14.7733 12.2804941,-19.63015 4.46782,-4.0364 15.095027,-9.45879 18.540463,-9.46002 1.410111,-5e-4 4.757794,2.54149 9.208831,6.99252 35.116479,35.11648 90.612822,34.71573 125.544352,-0.90658 3.42668,-3.49444 6.83381,-6.08639 8,-6.08594 3.28712,0.001 13.99437,5.51933 18.35625,9.46002 5.37595,4.85685 9.96618,12.19426 12.28049,19.63015 1.77536,5.70423 1.89456,10.07031 1.89456,69.3928 0,60.22673 -0.096,63.61466 -1.97502,69.6609 -4.38708,14.11703 -14.4499,23.92451 -29.49116,28.74281 L 175.5,344.5 175,418 c -0.49564,72.85963 -0.51876,73.53485 -2.65268,77.5 -2.76599,5.13962 -5.74931,7.87807 -11.34732,10.41597 -4.33119,1.96358 -6.31936,2.04011 -53,2.04011 -46.680636,0 -48.668807,-0.0765 -53,-2.04011 z M 97.476553,147.07429 C 73.385353,143.23456 52.909862,128.51588 42.597747,107.62501 36.991701,96.267955 35.522246,89.364251 35.547085,74.5 35.567065,62.542722 35.817484,60.797269 38.669139,52.738785 44.270419,36.910149 53.974652,24.159234 67.020549,15.486339 109.39311,-12.682887 165.72782,9.3818856 178.1175,59 c 2.26388,9.066352 1.76675,27.078649 -0.99289,35.974777 -9.58027,30.883533 -34.58699,50.747703 -66.01238,52.437163 -4.73673,0.25465 -10.87278,0.10271 -13.635677,-0.33765 z"
       id="path2988"
       inkscape:connector-curvature="0" />
    <path
       style="fill:#bbbbbb"
       d="M 54.5,505.10414 C 52.3,504.08557 49.286372,501.95795 47.803048,500.3761 41.804241,493.97882 42,496.76933 42,417.65456 c 0,-56.74519 -0.270414,-72.61892 -1.25,-73.37694 -0.6875,-0.532 -3.424051,-1.55582 -6.081224,-2.27515 -6.047748,-1.6372 -15.11079,-7.44021 -19.566139,-12.52806 C 10.461969,324.17492 6.0970115,314.47423 4.9034407,306.80768 4.3012363,302.9396 4.0345114,276.67656 4.2246235,239.968 4.5314452,180.72409 4.5817422,179.38394 6.7092091,173.76692 11.72505,160.5239 21.280601,151.25217 34.228718,147.0648 l 3.728718,-1.20586 6.771282,6.86454 C 64.53518,172.80272 92.441297,182.68644 119,179.02871 138.63162,176.325 155.94082,167.8621 170.57563,153.8121 l 8.14684,-7.8213 4.356,1.53689 c 14.46398,5.10318 25.0014,17.56333 27.82826,32.90597 1.3874,7.53001 1.49025,118.5715 0.1176,126.9534 -1.19192,7.27828 -5.62427,16.94542 -10.12697,22.08735 -4.45535,5.08785 -13.51839,10.89086 -19.56614,12.52806 -2.65717,0.71933 -5.39372,1.74315 -6.08122,2.27515 -0.97959,0.75802 -1.25,16.63175 -1.25,73.37694 0,79.11477 0.19576,76.32426 -5.80305,82.72154 -1.48332,1.58185 -4.49695,3.70947 -6.69695,4.72804 -3.72317,1.72377 -7.42576,1.85194 -53.5,1.85194 -46.074245,0 -49.776829,-0.12817 -53.5,-1.85194 z M 92.5,145.597 C 70.377674,140.53353 52.881298,126.71644 42.554054,106.15411 35.940918,92.986861 34.047916,72.952502 37.968479,57.623244 44.321055,32.784913 64.784913,12.321055 89.623244,5.9684794 c 10.372183,-2.6527575 25.381326,-2.6527575 35.753516,0 19.69785,5.0378616 37.31672,19.2498176 45.96916,37.0802126 6.36453,13.115639 7.96069,20.666352 7.38842,34.951308 -0.79558,19.858868 -7.04875,34.31492 -20.75997,47.99271 -8.86413,8.84253 -15.74177,13.1278 -27.71316,17.26729 -7.34891,2.54113 -10.615,3.08435 -20.26121,3.3699 -7.36693,0.21807 -13.656383,-0.15315 -17.5,-1.0329 z"
       id="path2986"
       inkscape:connector-curvature="0" />
    <path
       style="fill:#bbbbbb"
       d="m 57.728459,505.67315 c -5.122106,-1.59325 -10.320658,-5.95347 -12.730863,-10.67786 -1.941487,-3.80563 -1.99798,-5.93208 -2.011251,-75.70545 -0.0075,-39.48441 -0.273739,-72.7593 -0.591619,-73.9442 -0.418088,-1.55841 -1.866571,-2.47848 -5.236346,-3.3261 C 26.183192,339.25888 14.798019,330.4049 9.9146678,320.83274 5.1332072,311.4603 5,309.40057 5,244.83912 5,203.67461 5.3623769,182.39055 6.1243784,178.79922 9.1058741,164.74736 20.71962,151.75596 33.707803,147.94375 l 4.207803,-1.23504 7.176237,7.17624 c 17.244218,17.24421 38.530663,26.17672 62.512617,26.23239 24.2011,0.0562 44.58704,-8.07966 62.51509,-24.94915 l 8.85463,-8.33181 3.76291,1.19617 c 12.86804,4.09055 24.20564,16.94388 27.13853,30.76667 0.762,3.59133 1.12438,24.87539 1.12438,66.0399 0,64.56145 -0.13321,66.62118 -4.91467,75.99362 -4.88335,9.57216 -16.26852,18.42614 -27.24371,21.1868 -3.36978,0.84762 -4.81826,1.76769 -5.23635,3.3261 -0.31788,1.1849 -0.58411,34.45979 -0.59162,73.9442 -0.0132,69.44962 -0.0779,71.91578 -1.98463,75.65327 -2.58778,5.07246 -8.21699,9.61499 -13.59253,10.96857 -6.18408,1.55716 -94.615177,1.34561 -99.708031,-0.23853 z M 89.229512,143.9849 C 55.283595,135.09058 32.270284,101.3083 36.829522,67.064602 39.127429,49.80539 45.164159,37.61476 57.412072,25.5 69.894654,13.153123 81.973366,7.1719982 99.071996,4.8708815 113.52413,2.925927 130.74573,6.5071382 143.8346,14.179214 c 7.2842,4.269652 20.71653,17.701982 24.98619,24.986182 14.5929,24.896093 12.43164,57.445443 -5.31578,80.057504 -9.30733,11.85849 -23.49067,21.06496 -38.27932,24.84726 -10.05942,2.57276 -25.995685,2.53502 -35.996178,-0.0853 z"
       id="path2984"
       inkscape:connector-curvature="0" />
  </g>
</svg>
