<?xml version="1.0" encoding="UTF-8" standalone="no"?>
<svg
   xmlns:dc="http://purl.org/dc/elements/1.1/"
   xmlns:cc="http://creativecommons.org/ns#"
   xmlns:rdf="http://www.w3.org/1999/02/22-rdf-syntax-ns#"
   xmlns:svg="http://www.w3.org/2000/svg"
   xmlns="http://www.w3.org/2000/svg"
   xmlns:sodipodi="http://sodipodi.sourceforge.net/DTD/sodipodi-0.dtd"
   xmlns:inkscape="http://www.inkscape.org/namespaces/inkscape"
   enable-background="new 0 0 512 512"
   height="91.956459"
   id="Calque_1"
   version="1.1"
   viewBox="0 0 99.999999 91.95646"
   width="100"
   xml:space="preserve"
   inkscape:version="0.91 r13725"
   sodipodi:docname="Assessment.svg"><metadata
     id="metadata63"><rdf:RDF><cc:Work
         rdf:about=""><dc:format>image/svg+xml</dc:format><dc:type
           rdf:resource="http://purl.org/dc/dcmitype/StillImage" /><dc:title></dc:title></cc:Work></rdf:RDF></metadata><defs
     id="defs61" /><sodipodi:namedview
     pagecolor="#ffffff"
     bordercolor="#666666"
     borderopacity="1"
     objecttolerance="10"
     gridtolerance="10"
     guidetolerance="10"
     inkscape:pageopacity="0"
     inkscape:pageshadow="2"
     inkscape:window-width="2560"
     inkscape:window-height="1384"
     id="namedview59"
     showgrid="false"
     inkscape:zoom="1.6613439"
     inkscape:cx="-78.841198"
     inkscape:cy="-2.6097345"
     inkscape:window-x="-4"
     inkscape:window-y="-4"
     inkscape:window-maximized="1"
     inkscape:current-layer="Calque_1"
     fit-margin-top="0"
     fit-margin-left="0"
     fit-margin-right="0"
     fit-margin-bottom="0" /><g
     id="g3"
     transform="matrix(0.19545222,0,0,0.19545222,-0.03576776,-4.0576281)"
     inkscape:export-xdpi="14.4"
     inkscape:export-ydpi="14.4"><polygon
       points="43.605,358.491 135.568,461.288 511.817,124.749 419.855,21.945 "
       id="naraja"
       style="fill:#b3b3b3" /><polygon
       points="135.568,461.288 511.817,124.749 503.543,115.504 420.409,21.945 374.307,62.922 418.789,112.986 88.365,408.514 "
       id="parteNegraDelLapiz"
       style="fill:#333333" /><polygon
       points="89.556,409.965 43.533,358.614 0.183,490.055 135.568,461.288 "
       id="Corteza"
       style="fill:#ffccaa" /><g
       id="g11"
       style="opacity:0.17000002" /><polygon
       points="55.406,478.326 36.644,457.381 17.868,436.428 0.183,490.055 "
       id="polygon15"
       style="fill:#4d4d4d" /><g
       id="regla"
       style="fill:#e6e6e6"><polygon
         points="476.681,384.039 149.064,24.374 35.327,127.968 362.943,487.627 "
         id="polygon21"
         style="fill:#e6e6e6;stroke:#000000;stroke-width:5.11634016;stroke-opacity:1" /></g><g
       id="lines"
       transform="matrix(0.9995668,0.02943152,-0.02943152,0.9995668,6.2576345,-7.2494402)"><polygon
         points="180.094,93.1 173.339,85.664 133.717,121.764 140.479,129.172 "
         id="polygon27"
         style="fill:#4d4d4d" /><polygon
         points="206.523,122.094 199.757,114.686 160.139,150.778 166.901,158.187 "
         id="polygon29"
         style="fill:#4d4d4d" /><polygon
         points="232.944,151.116 226.179,143.68 186.564,179.772 193.322,187.208 "
         id="polygon31"
         style="fill:#4d4d4d" /><polygon
         points="259.362,180.13 252.607,172.701 212.992,208.794 219.754,216.203 "
         id="polygon33"
         style="fill:#4d4d4d" /><polygon
         points="285.791,209.125 279.028,201.695 239.417,237.789 246.176,245.225 "
         id="polygon35"
         style="fill:#4d4d4d" /><polygon
         points="312.212,238.119 305.454,230.71 265.839,266.811 272.597,274.212 "
         id="polygon37"
         style="fill:#4d4d4d" /><polygon
         points="338.637,267.141 331.882,259.705 292.26,295.798 299.022,303.24 "
         id="polygon39"
         style="fill:#4d4d4d" /><polygon
         points="365.065,296.155 358.304,288.726 318.682,324.826 325.443,332.228 "
         id="polygon41"
         style="fill:#4d4d4d" /></g></g></svg>