<?xml version="1.0" encoding="UTF-8" standalone="no"?>
<svg
   xmlns:dc="http://purl.org/dc/elements/1.1/"
   xmlns:cc="http://creativecommons.org/ns#"
   xmlns:rdf="http://www.w3.org/1999/02/22-rdf-syntax-ns#"
   xmlns:svg="http://www.w3.org/2000/svg"
   xmlns="http://www.w3.org/2000/svg"
   xmlns:sodipodi="http://sodipodi.sourceforge.net/DTD/sodipodi-0.dtd"
   xmlns:inkscape="http://www.inkscape.org/namespaces/inkscape"
   height="100"
   version="1.0"
   viewBox="0 0 100 100"
   width="100"
   xml:space="preserve"
   id="svg2"
   inkscape:version="0.91 r13725"
   sodipodi:docname="Asset.svg"><metadata
     id="metadata17"><rdf:RDF><cc:Work
         rdf:about=""><dc:format>image/svg+xml</dc:format><dc:type
           rdf:resource="http://purl.org/dc/dcmitype/StillImage" /><dc:title></dc:title></cc:Work></rdf:RDF></metadata><defs
     id="defs15" /><sodipodi:namedview
     pagecolor="#ffffff"
     bordercolor="#666666"
     borderopacity="1"
     objecttolerance="10"
     gridtolerance="10"
     guidetolerance="10"
     inkscape:pageopacity="0"
     inkscape:pageshadow="2"
     inkscape:window-width="1717"
     inkscape:window-height="1212"
     id="namedview13"
     showgrid="false"
     inkscape:zoom="3.1607673"
     inkscape:cx="68.215827"
     inkscape:cy="25.577466"
     inkscape:window-x="673"
     inkscape:window-y="0"
     inkscape:window-maximized="0"
     inkscape:current-layer="Multicolor"
     fit-margin-top="0"
     fit-margin-left="0"
     fit-margin-right="0"
     fit-margin-bottom="0" /><g
     id="Multicolor"
     transform="matrix(-1.5625,0,0,-1.5625,135.9375,135.9375)"
     inkscape:export-xdpi="22.5"
     inkscape:export-ydpi="22.5"><g
       id="g5"
       transform="matrix(0.984375,0,0,0.984375,0.859375,0.859375)"
       inkscape:export-xdpi="14.4"
       inkscape:export-ydpi="14.4"><path
         d="M 75,23 49.792,48.208 C 47.668,47.44 45.388,47 43,47 31.954,47 23,55.954 23,67 c 0,11.046 8.954,20 20,20 11.046,0 20,-8.954 20,-20 0,-2.388 -0.44,-4.668 -1.208,-6.792 L 63,59 l 0,-8 8,0 0,-8 8,0 0,-8 8,0 0,-12 -12,0 z M 47.595,76.204 c -0.2,0.955 -0.869,1.744 -1.777,2.1 C 42.187,79.726 37.9,78.97 34.965,76.035 32.03,73.101 31.274,68.812 32.697,65.18 c 0.356,-0.909 1.146,-1.577 2.102,-1.776 0.956,-0.199 1.946,0.098 2.636,0.788 l 9.375,9.375 c 0.69,0.69 0.985,1.682 0.785,2.637 z"
         style="fill:#facb1b;stroke:#000000;stroke-width:1.01587307;stroke-opacity:1"
         id="general"
         inkscape:connector-curvature="0" /><path
         d="M 87,23 75,23 49.792,48.208 C 47.668,47.44 45.388,47 43,47 31.954,47 23,55.954 23,67 c 0,5.701 2.397,10.832 6.224,14.475 l 5.602,-5.602 C 32.017,72.944 31.3,68.749 32.698,65.18 c 0.356,-0.909 1.146,-1.577 2.102,-1.776 0.956,-0.199 1.946,0.098 2.636,0.788 L 41.972,68.728 87,23.698 87,23 Z"
         style="fill:#fbe158;stroke:#000000;stroke-width:1.01587307;stroke-opacity:1"
         id="amarillo clarito"
         inkscape:connector-curvature="0" /><path
         d="m 55,49 c -0.552,-0.552 -0.552,-1.448 0,-2 l 22,-22 4,0 -24,24 c -0.552,0.552 -1.448,0.552 -2,0 z"
         style="fill:#f3b607"
         id="ranura en punta"
         inkscape:connector-curvature="0" /></g></g></svg>