<?xml version="1.0" encoding="UTF-8" standalone="no"?>
<svg
   xmlns:dc="http://purl.org/dc/elements/1.1/"
   xmlns:cc="http://creativecommons.org/ns#"
   xmlns:rdf="http://www.w3.org/1999/02/22-rdf-syntax-ns#"
   xmlns:svg="http://www.w3.org/2000/svg"
   xmlns="http://www.w3.org/2000/svg"
   xmlns:sodipodi="http://sodipodi.sourceforge.net/DTD/sodipodi-0.dtd"
   xmlns:inkscape="http://www.inkscape.org/namespaces/inkscape"
   enable-background="new 0 0 512 512"
   height="60.281113mm"
   id="Layer_1"
   version="1.1"
   viewBox="0 0 361.15654 213.59449"
   width="101.9264mm"
   xml:space="preserve"
   inkscape:version="0.91 r13725"
   sodipodi:docname="End.svg"><metadata
     id="metadata9"><rdf:RDF><cc:Work
         rdf:about=""><dc:format>image/svg+xml</dc:format><dc:type
           rdf:resource="http://purl.org/dc/dcmitype/StillImage" /><dc:title></dc:title></cc:Work></rdf:RDF></metadata><defs
     id="defs7" /><sodipodi:namedview
     pagecolor="#ffffff"
     bordercolor="#666666"
     borderopacity="1"
     objecttolerance="10"
     gridtolerance="10"
     guidetolerance="10"
     inkscape:pageopacity="0"
     inkscape:pageshadow="2"
     inkscape:window-width="2560"
     inkscape:window-height="1384"
     id="namedview5"
     showgrid="false"
     inkscape:zoom="1.5633689"
     inkscape:cx="-25.72563"
     inkscape:cy="37.202119"
     inkscape:window-x="-4"
     inkscape:window-y="-4"
     inkscape:window-maximized="1"
     inkscape:current-layer="Layer_1"
     units="mm"
     fit-margin-top="0"
     fit-margin-left="0"
     fit-margin-right="0"
     fit-margin-bottom="0" /><path
     d="m 330.64342,26.426 -229.08518,0 0,-5.185 C 101.55824,9.787 88.11956,0.5 71.54514,0.5 L 30.5131,0.5 C 13.93868,0.5 0.5,9.787 0.5,21.241 l 0,25.926 0,36.2965 0,108.89 c 0,11.4535 13.43868,20.741 30.0131,20.741 l 300.13032,0 c 16.57442,0 30.0131,-9.2875 30.0131,-20.741 l 0,-145.1865 c 0,-11.454 -13.43868,-20.741 -30.0131,-20.741 z M 15.50655,21.241 c 0,-5.7175 6.73453,-10.3705 15.00655,-10.3705 l 41.03276,0 c 8.27202,0 15.00655,4.653 15.00655,10.3705 l 0,5.185 0,10.3705 15.00656,0 229.08517,0 c 8.27202,0 15.00656,4.653 15.00656,10.3705 l 0,10.3705 -330.14415,0 0,-10.3705 z m 315.13687,181.4835 -300.13032,0 c -8.27202,0 -15.00655,-4.6535 -15.00655,-10.3705 l 0,-108.89 0,-15.5555 330.14342,0 0,124.446 c 0,5.716 -6.73381,10.37 -15.00655,10.37 z"
     id="path3"
     inkscape:connector-curvature="0"
     style="fill:#afafaf;fill-opacity:1;stroke:#f3f3f3;stroke-width:1;stroke-opacity:1"
     sodipodi:nodetypes="scssssccsssssssssscccsscccsssscccss" /><text
     xml:space="preserve"
     style="font-style:normal;font-weight:normal;font-size:34.3789444px;line-height:125%;font-family:sans-serif;letter-spacing:0px;word-spacing:0px;fill:#afafaf;fill-opacity:1;stroke:none;stroke-width:1px;stroke-linecap:butt;stroke-linejoin:miter;stroke-opacity:1"
     x="26.045008"
     y="46.561432"
     id="text4137"
     sodipodi:linespacing="125%"
     transform="scale(0.93425664,1.0703697)"><tspan
       sodipodi:role="line"
       id="tspan4139"
       x="26.045008"
       y="46.561432"
       style="font-style:normal;font-variant:normal;font-weight:normal;font-stretch:normal;font-family:'Book Antiqua';-inkscape-font-specification:'Book Antiqua';fill:#afafaf;fill-opacity:1">End</tspan></text>
<flowRoot
     xml:space="preserve"
     id="flowRoot5625"
     style="font-style:normal;font-weight:normal;font-size:40px;line-height:125%;font-family:sans-serif;letter-spacing:0px;word-spacing:0px;fill:#000000;fill-opacity:1;stroke:none;stroke-width:1px;stroke-linecap:butt;stroke-linejoin:miter;stroke-opacity:1"
     transform="translate(-131.16276,-148.85425)"><flowRegion
       id="flowRegion5627"><rect
         id="rect5629"
         width="521.94977"
         height="268.01096"
         x="41.576878"
         y="101.98801" /></flowRegion><flowPara
       id="flowPara5631"></flowPara></flowRoot></svg>