<?xml version="1.0" encoding="UTF-8" standalone="no"?>
<svg
   xmlns:dc="http://purl.org/dc/elements/1.1/"
   xmlns:cc="http://creativecommons.org/ns#"
   xmlns:rdf="http://www.w3.org/1999/02/22-rdf-syntax-ns#"
   xmlns:svg="http://www.w3.org/2000/svg"
   xmlns="http://www.w3.org/2000/svg"
   xmlns:sodipodi="http://sodipodi.sourceforge.net/DTD/sodipodi-0.dtd"
   xmlns:inkscape="http://www.inkscape.org/namespaces/inkscape"
   enable-background="new 0 0 50 50"
   height="50px"
   id="Layer_1"
   version="1.1"
   viewBox="0 0 50 50"
   width="50px"
   xml:space="preserve"
   inkscape:version="0.91 r13725"
   sodipodi:docname="Goal.svg"><metadata
     id="metadata29"><rdf:RDF><cc:Work
         rdf:about=""><dc:format>image/svg+xml</dc:format><dc:type
           rdf:resource="http://purl.org/dc/dcmitype/StillImage" /><dc:title></dc:title></cc:Work></rdf:RDF></metadata><defs
     id="defs27" /><sodipodi:namedview
     pagecolor="#ffffff"
     bordercolor="#666666"
     borderopacity="1"
     objecttolerance="10"
     gridtolerance="10"
     guidetolerance="10"
     inkscape:pageopacity="0"
     inkscape:pageshadow="2"
     inkscape:window-width="2560"
     inkscape:window-height="1384"
     id="namedview25"
     showgrid="false"
     inkscape:zoom="13.350176"
     inkscape:cx="12.197384"
     inkscape:cy="27.438451"
     inkscape:window-x="-4"
     inkscape:window-y="-4"
     inkscape:window-maximized="1"
     inkscape:current-layer="Layer_1" /><rect
     fill="none"
     height="50"
     width="50"
     id="rect3" /><line
     fill="none"
     stroke="#000000"
     stroke-linecap="round"
     stroke-linejoin="round"
     stroke-miterlimit="10"
     stroke-width="2"
     x1="18.594"
     x2="3.373"
     y1="47.92"
     y2="5.407"
     id="line5" /><path
     d="  M4.448,8.409c0,0,5.911-6.409,16.179-6.409c6.25,0,9.106,4.073,14.264,4.073C40.046,6.073,44.998,2,44.998,2v26.471  c0,0-3.723,2.037-8.146,2.037c-4.421,0-6.225-2.037-12.217-2.037c-5.683,0-11.025,5.516-11.025,5.516L4.448,8.409z"
     fill="none"
     stroke="#000000"
     stroke-linecap="round"
     stroke-linejoin="round"
     stroke-miterlimit="10"
     stroke-width="2"
     id="path7" /><path
     d="M4.448,8.409c0,0,3.067-3.248,7.207-4.584l3.164,8.124c0,0-4.086,1.47-7.422,4.605L4.553,8.709"
     id="path9" /><path
     d="M14.819,11.949l3.412,8.759c0,0,2.683-0.954,4.53-0.954s3.678,0.271,3.678,0.271l-2.477-9.315c0,0-0.7-0.099-1.563-0.099  C18.264,10.611,14.819,11.949,14.819,11.949z"
     id="path11" /><path
     d="M10.72,25.776l2.89,8.21c0,0,3.997-3.832,7.804-4.91l-3.182-8.368C14.566,22.12,10.72,25.776,10.72,25.776z"
     id="path13" /><path
     d="M21.676,2.111l2.287,8.598c1.85,0,6.994,2.521,6.994,2.521l-2.028-8.879C27.766,3.916,24.721,2.255,21.676,2.111z"
     id="path15" /><path
     d="M26.439,20.024l2.355,8.851c1.186,0,4.586,1.449,6.065,1.449l-1.988-8.702C30.957,21.124,27.859,20.223,26.439,20.024z"
     id="path17" /><path
     d="M30.957,13.231l1.915,8.392c0,0,1.916,0.354,3.231,0.354c1.314,0,2.953-0.298,2.953-0.298l-0.622-7.684  c0,0-1.269,0.394-2.807,0.394C33.225,14.389,30.957,13.231,30.957,13.231z"
     id="path19" /><path
     d="M37.762,5.671l0.673,8.323c0,0,3.129-0.786,6.565-3.384L44.998,2C41.053,5.022,37.762,5.671,37.762,5.671z"
     id="path21" /><path
     d="M39.057,21.679c0,0,3.014-0.559,5.941-2.259v9.051c-3.117,1.496-5.261,1.767-5.261,1.767L39.057,21.679z"
     id="path23" /><g
     id="g4216"
     style="stroke:#ae5656;stroke-opacity:1;fill:none"><path
       id="PapyrusPath"
       style="fill:none;fill-opacity:1;stroke:none;stroke-width:2;stroke-linecap:round;stroke-linejoin:round;stroke-miterlimit:10;stroke-opacity:1"
       d="m 4.4157463,8.4902071 c 2.398414,-2.312895 5.335235,-4.072469 8.5008897,-5.153281 3.165654,-1.080812 6.560142,-1.482862 9.873891,-1.080707 2.341327,0.329742 4.480977,1.496789 6.65407,2.47254 2.173093,0.975752 4.379629,1.760208 6.854728,1.324767 3.188908,-0.477987 6.12905,-2.029868 8.666421,-3.972319 l 0,6.61775 0,6.6177499 0,6.61775 0,6.61775 c -2.038836,1.044242 -4.284692,1.722839 -6.565268,1.94031 -2.280576,0.21747 -4.595871,-0.02619 -6.773583,-0.82645 -2.025049,-0.64037 -4.204882,-1.091793 -6.358626,-1.108236 -2.153744,-0.01644 -4.281401,0.402095 -6.2021,1.501647 -2.018981,0.76016 -4.145252,3.133926 -5.575852,3.764649 l -2.268643,-6.33348 -2.2686427,-6.33348 -2.268642,-6.33348 z M 18.561746,48.001205 C 13.488079,33.830206 8.4144133,19.659207 3.3407473,5.4882081"
       inkscape:connector-curvature="0" /></g></svg>