<?xml version="1.0" encoding="UTF-8" standalone="no"?>
<svg
   xmlns:dc="http://purl.org/dc/elements/1.1/"
   xmlns:cc="http://creativecommons.org/ns#"
   xmlns:rdf="http://www.w3.org/1999/02/22-rdf-syntax-ns#"
   xmlns:svg="http://www.w3.org/2000/svg"
   xmlns="http://www.w3.org/2000/svg"
   xmlns:sodipodi="http://sodipodi.sourceforge.net/DTD/sodipodi-0.dtd"
   xmlns:inkscape="http://www.inkscape.org/namespaces/inkscape"
   enable-background="new 0 0 50 50"
   height="50px"
   id="Layer_1"
   version="1.1"
   viewBox="0 0 50 50"
   width="50px"
   xml:space="preserve"
   inkscape:version="0.91 r13725"
   sodipodi:docname="Goal.svg"><metadata
     id="metadata29"><rdf:RDF><cc:Work
         rdf:about=""><dc:format>image/svg+xml</dc:format><dc:type
           rdf:resource="http://purl.org/dc/dcmitype/StillImage" /><dc:title /></cc:Work></rdf:RDF></metadata><defs
     id="defs27" /><sodipodi:namedview
     pagecolor="#ffffff"
     bordercolor="#666666"
     borderopacity="1"
     objecttolerance="10"
     gridtolerance="10"
     guidetolerance="10"
     inkscape:pageopacity="0"
     inkscape:pageshadow="2"
     inkscape:window-width="2560"
     inkscape:window-height="1384"
     id="namedview25"
     showgrid="false"
     inkscape:zoom="13.350176"
     inkscape:cx="-6.6787716"
     inkscape:cy="27.363546"
     inkscape:window-x="1596"
     inkscape:window-y="-4"
     inkscape:window-maximized="1"
     inkscape:current-layer="Layer_1" /><rect
     fill="none"
     height="50"
     width="50"
     id="rect3" /><line
     fill="none"
     stroke="#000000"
     stroke-linecap="round"
     stroke-linejoin="round"
     stroke-miterlimit="10"
     stroke-width="2"
     x1="18.594"
     x2="3.373"
     y1="47.92"
     y2="5.407"
     id="line5" /><path
     d="  M4.448,8.409c0,0,5.911-6.409,16.179-6.409c6.25,0,9.106,4.073,14.264,4.073C40.046,6.073,44.998,2,44.998,2v26.471  c0,0-3.723,2.037-8.146,2.037c-4.421,0-6.225-2.037-12.217-2.037c-5.683,0-11.025,5.516-11.025,5.516L4.448,8.409z"
     fill="none"
     stroke="#000000"
     stroke-linecap="round"
     stroke-linejoin="round"
     stroke-miterlimit="10"
     stroke-width="2"
     id="path7" /><path
     d="M4.448,8.409c0,0,3.067-3.248,7.207-4.584l3.164,8.124c0,0-4.086,1.47-7.422,4.605L4.553,8.709"
     id="path9" /><path
     d="M14.819,11.949l3.412,8.759c0,0,2.683-0.954,4.53-0.954s3.678,0.271,3.678,0.271l-2.477-9.315c0,0-0.7-0.099-1.563-0.099  C18.264,10.611,14.819,11.949,14.819,11.949z"
     id="path11" /><path
     d="M10.72,25.776l2.89,8.21c0,0,3.997-3.832,7.804-4.91l-3.182-8.368C14.566,22.12,10.72,25.776,10.72,25.776z"
     id="path13" /><path
     d="M21.676,2.111l2.287,8.598c1.85,0,6.994,2.521,6.994,2.521l-2.028-8.879C27.766,3.916,24.721,2.255,21.676,2.111z"
     id="path15" /><path
     d="M26.439,20.024l2.355,8.851c1.186,0,4.586,1.449,6.065,1.449l-1.988-8.702C30.957,21.124,27.859,20.223,26.439,20.024z"
     id="path17" /><path
     d="M30.957,13.231l1.915,8.392c0,0,1.916,0.354,3.231,0.354c1.314,0,2.953-0.298,2.953-0.298l-0.622-7.684  c0,0-1.269,0.394-2.807,0.394C33.225,14.389,30.957,13.231,30.957,13.231z"
     id="path19" /><path
     d="M37.762,5.671l0.673,8.323c0,0,3.129-0.786,6.565-3.384L44.998,2C41.053,5.022,37.762,5.671,37.762,5.671z"
     id="path21" /><path
     d="M39.057,21.679c0,0,3.014-0.559,5.941-2.259v9.051c-3.117,1.496-5.261,1.767-5.261,1.767L39.057,21.679z"
     id="path23" /><path
     style="color:#000000;font-style:normal;font-variant:normal;font-weight:normal;font-stretch:normal;font-size:medium;line-height:normal;font-family:sans-serif;text-indent:0;text-align:start;text-decoration:none;text-decoration-line:none;text-decoration-style:solid;text-decoration-color:#000000;letter-spacing:normal;word-spacing:normal;text-transform:none;direction:ltr;block-progression:tb;writing-mode:lr-tb;baseline-shift:baseline;text-anchor:start;white-space:normal;clip-rule:nonzero;display:inline;overflow:visible;visibility:visible;opacity:0.16000001;isolation:auto;mix-blend-mode:normal;color-interpolation:sRGB;color-interpolation-filters:linearRGB;solid-color:#000000;solid-opacity:1;fill:#d96b6b;fill-opacity:0.22014926;fill-rule:nonzero;stroke:none;stroke-width:1;stroke-linecap:square;stroke-linejoin:miter;stroke-miterlimit:0;stroke-dasharray:none;stroke-dashoffset:0;stroke-opacity:1;color-rendering:auto;image-rendering:auto;shape-rendering:auto;text-rendering:auto;enable-background:accumulate"
     d="m 0.75,0.36132812 -0.5,0.5 0,48.53906288 0.5,0.5 47.939453,0 0.5,-0.5 0,-48.53906288 -0.5,-0.5 -47.939453,0 z m 0.5,0.99999998 46.939453,0 0,47.5390629 -46.939453,0 0,-47.5390629 z"
     id="PapyrusPath"
     inkscape:connector-curvature="0" /></svg>