<?xml version="1.0" encoding="UTF-8" standalone="no"?>
<svg
   xmlns:dc="http://purl.org/dc/elements/1.1/"
   xmlns:cc="http://creativecommons.org/ns#"
   xmlns:rdf="http://www.w3.org/1999/02/22-rdf-syntax-ns#"
   xmlns:svg="http://www.w3.org/2000/svg"
   xmlns="http://www.w3.org/2000/svg"
   xmlns:sodipodi="http://sodipodi.sourceforge.net/DTD/sodipodi-0.dtd"
   xmlns:inkscape="http://www.inkscape.org/namespaces/inkscape"
   enable-background="new 0 0 512 512"
   id="Layer_1"
   version="1.1"
   viewBox="0 0 78.338225 98.224679"
   xml:space="preserve"
   inkscape:version="0.91 r13725"
   sodipodi:docname="Strategy.svg"
   width="78.338226"
   height="98.224701"><metadata
     id="metadata9"><rdf:RDF><cc:Work
         rdf:about=""><dc:format>image/svg+xml</dc:format><dc:type
           rdf:resource="http://purl.org/dc/dcmitype/StillImage" /><dc:title></dc:title></cc:Work></rdf:RDF></metadata><defs
     id="defs7" /><sodipodi:namedview
     pagecolor="#ffffff"
     bordercolor="#666666"
     borderopacity="1"
     objecttolerance="10"
     gridtolerance="10"
     guidetolerance="10"
     inkscape:pageopacity="0"
     inkscape:pageshadow="2"
     inkscape:window-width="2560"
     inkscape:window-height="1384"
     id="namedview5"
     showgrid="true"
     inkscape:zoom="5.2149125"
     inkscape:cx="-50.357972"
     inkscape:cy="33.651226"
     inkscape:window-x="-4"
     inkscape:window-y="-4"
     inkscape:window-maximized="1"
     inkscape:current-layer="Layer_1"
     fit-margin-top="0"
     fit-margin-left="0"
     fit-margin-right="0"
     fit-margin-bottom="0"
     showguides="true"
     inkscape:snap-grids="true"><inkscape:grid
       type="xygrid"
       id="grid4140" /></sodipodi:namedview><path
     d="m 68.66115,-1.1444092e-5 -58.9840807,0 C 4.3585259,-1.1444092e-5 0,4.4161142 0,9.7922646 L 0,88.41851 c 0,5.376149 4.3585259,9.79227 9.6770693,9.79227 4.8577457,0.25119 14.1124007,-2.923474 26.6503657,-7.632055 2.265661,-0.844442 4.185717,-0.310198 5.472156,0.16988 13.920387,5.197436 23.923876,7.629154 26.861559,7.462175 5.318553,0 9.677078,-4.396921 9.677078,-9.79227 l 0,-78.6262454 c 0,-5.3761503 -4.358525,-9.792276044092 -9.677078,-9.792276044092 z"
     id="PapyrusPath"
     inkscape:connector-curvature="0"
     style="fill:#303a3f"
     sodipodi:nodetypes="ssssccccsss"
     inkscape:export-filename="C:\Users\MA244259\wsMarsR\org.eclipse.papyrus.req.bmm.diagram.common\icons\Strategy.png"
     inkscape:export-xdpi="14"
     inkscape:export-ydpi="14" /><path
     d="m 26.372895,17.010796 6.278807,-0.87199 c 0.873581,-0.132136 1.610655,-0.634176 1.992841,-1.400484 l 2.811814,-5.4961944 c 0.982765,-1.9025285 3.767286,-1.9025285 4.75005,0 l 2.784512,5.4697734 c 0.382185,0.766306 1.119259,1.268354 1.99284,1.400472 l 6.278808,0.872003 c 2.183933,0.317089 3.03021,2.880218 1.474151,4.359953 l -4.558948,4.307124 c -0.627893,0.581324 -0.900875,1.426892 -0.764388,2.272462 l 1.064672,6.051107 c 0.382184,2.087507 -1.91095,3.699369 -3.849186,2.695242 l -5.596316,-2.853797 c -0.76438,-0.396343 -1.692557,-0.396343 -2.456925,0 l -5.596328,2.853797 c -1.938243,0.97769 -4.204075,-0.607735 -3.849185,-2.695242 l 1.064673,-6.051107 C 30.331253,27.10478 30.05829,26.232777 29.430408,25.651453 l -4.531655,-4.28069 C 23.3154,19.891014 24.188972,17.301465 26.372895,17.010796 Z m 40.805785,46.85689 c 0,1.536044 -1.267243,2.803285 -2.803287,2.803285 l -51.03505,0 c -1.536044,0 -2.803277,-1.267241 -2.803277,-2.803285 l 0,-0.883222 c 0,-1.536043 1.267233,-2.803275 2.803277,-2.803275 l 51.03505,0 c 1.536044,0 2.803287,1.267232 2.803287,2.803275 z m 0,-12.78756 c 0,1.536044 -1.267243,2.803275 -2.803287,2.803275 l -51.03505,0 c -1.536044,0 -2.803277,-1.267231 -2.803277,-2.803275 l 0,-0.883221 c 0,-1.536045 1.267233,-2.803284 2.803277,-2.803284 l 51.03505,0 c 1.536044,0 2.803287,1.267239 2.803287,2.803284 z"
     id="estrellaYLineas"
     inkscape:connector-curvature="0"
     style="opacity:1;fill:#ffdd55;fill-opacity:1"
     sodipodi:nodetypes="cccccccccccccccccccccssssssssssssssssss"
     inkscape:export-filename="C:\Users\MA244259\wsMarsR\org.eclipse.papyrus.req.bmm.diagram.common\icons\Strategy.png"
     inkscape:export-xdpi="14"
     inkscape:export-ydpi="14" /></svg>