<?xml version="1.0" encoding="UTF-8" standalone="no"?>
<svg
   xmlns:dc="http://purl.org/dc/elements/1.1/"
   xmlns:cc="http://creativecommons.org/ns#"
   xmlns:rdf="http://www.w3.org/1999/02/22-rdf-syntax-ns#"
   xmlns:svg="http://www.w3.org/2000/svg"
   xmlns="http://www.w3.org/2000/svg"
   xmlns:sodipodi="http://sodipodi.sourceforge.net/DTD/sodipodi-0.dtd"
   xmlns:inkscape="http://www.inkscape.org/namespaces/inkscape"
   enable-background="new 0 0 128 128"
   height="96.71875"
   id="Layer_1"
   version="1.1"
   viewBox="0 0 103.61522 96.718749"
   width="103.61523"
   xml:space="preserve"
   inkscape:version="0.91 r13725"
   sodipodi:docname="Tactic.svg"><metadata
     id="metadata9"><rdf:RDF><cc:Work
         rdf:about=""><dc:format>image/svg+xml</dc:format><dc:type
           rdf:resource="http://purl.org/dc/dcmitype/StillImage" /><dc:title></dc:title></cc:Work></rdf:RDF></metadata><defs
     id="defs7" /><sodipodi:namedview
     pagecolor="#ffffff"
     bordercolor="#666666"
     borderopacity="1"
     objecttolerance="10"
     gridtolerance="10"
     guidetolerance="10"
     inkscape:pageopacity="0"
     inkscape:pageshadow="2"
     inkscape:window-width="2560"
     inkscape:window-height="1384"
     id="namedview5"
     showgrid="false"
     fit-margin-top="0"
     fit-margin-left="0"
     fit-margin-right="0"
     fit-margin-bottom="0"
     inkscape:zoom="10.44"
     inkscape:cx="49.068093"
     inkscape:cy="46.245244"
     inkscape:window-x="-4"
     inkscape:window-y="-4"
     inkscape:window-maximized="1"
     inkscape:current-layer="Layer_1" /><path
     d="M 11.725171,31.706816 30.89969,29.040908 c 2.667782,-0.403977 4.918699,-1.938861 6.085833,-4.281644 L 45.572376,7.9558955 c 3.001216,-5.8165301 11.504728,-5.8165301 14.505935,0 l 8.503482,16.7225725 c 1.167134,2.342811 3.418051,3.877697 6.085832,4.281616 l 19.17452,2.665966 c 6.669395,0.96943 9.253775,8.805588 4.501835,13.329532 L 84.421642,58.12364 c -1.917492,1.777243 -2.751134,4.362383 -2.334327,6.947524 l 3.251348,18.499873 c 1.167134,6.382069 -5.835749,11.309962 -11.75482,8.240077 L 56.493536,83.086292 c -2.334297,-1.211732 -5.16881,-1.211732 -7.503079,0 L 31.900122,91.811114 C 25.981021,94.800176 19.061509,89.953106 20.145291,83.571037 L 23.39665,65.071164 C 23.813397,62.566849 22.979805,59.900883 21.062352,58.12364 L 7.223366,45.036407 C 2.3880461,40.512433 5.0558004,32.59548 11.725171,31.706816 Z"
     id="estrella"
     inkscape:connector-curvature="0"
     style="opacity:1;fill:#ffdd55;fill-opacity:1;stroke:#000000;stroke-width:3.99999976;stroke-linecap:round;stroke-linejoin:round;stroke-miterlimit:4;stroke-dasharray:none;stroke-opacity:0.90222653"
     sodipodi:nodetypes="ccccccccccccccccccccc"
     inkscape:export-filename="C:\Users\MA244259\wsMarsR\org.eclipse.papyrus.req.bmm.diagram.common\icons\Tactic.png"
     inkscape:export-xdpi="14"
     inkscape:export-ydpi="14" /><path
     style="fill:none;fill-rule:evenodd;stroke:none;stroke-width:1px;stroke-linecap:butt;stroke-linejoin:miter;stroke-opacity:1"
     d="M 5.9302345,31.281427 C 14.908025,28.062546 25.211249,29.680872 33.677304,24.982663 40.083365,19.656758 39.808162,10.145307 45.391153,4.2874333 50.407332,-0.31365525 59.617916,0.96402781 62.457242,7.4260891 65.460721,13.268301 68.068958,19.30812 71.02808,25.178871 c 8.554877,3.991139 18.141259,4.273579 27.304988,5.801723 5.904222,3.001281 5.691422,12.301501 0.264821,15.695095 -4.842528,4.822554 -9.15094,10.141108 -13.851386,15.096924 -0.355109,9.333701 5.757287,18.321047 2.683514,27.644421 -3.3521,5.904492 -11.888193,6.622118 -17.123759,2.903282 C 64.002927,89.661675 58.221077,84.969574 51.091298,84.907653 42.41813,87.696966 35.110163,95.959909 25.308366,94.181344 19.084779,92.884255 17.334956,85.140324 19.160946,79.83792 19.993672,73.809328 22.199785,67.649968 20.597533,61.559761 15.50899,53.741152 5.0574327,49.850746 2.8798372,40.113301 2.5362364,36.846448 4.7357752,34.127664 5.9302345,31.281427 Z"
     id="PapyrusPath"
     inkscape:connector-curvature="0" /></svg>