<?xml version="1.0" encoding="UTF-8" standalone="no"?>
<svg
   xmlns:dc="http://purl.org/dc/elements/1.1/"
   xmlns:cc="http://creativecommons.org/ns#"
   xmlns:rdf="http://www.w3.org/1999/02/22-rdf-syntax-ns#"
   xmlns:svg="http://www.w3.org/2000/svg"
   xmlns="http://www.w3.org/2000/svg"
   xmlns:sodipodi="http://sodipodi.sourceforge.net/DTD/sodipodi-0.dtd"
   xmlns:inkscape="http://www.inkscape.org/namespaces/inkscape"
   enable-background="new 0 0 128 128"
   height="90.853508"
   id="Layer_1"
   version="1.1"
   viewBox="0 0 98.032871 90.853507"
   width="98.03289"
   xml:space="preserve"
   inkscape:version="0.91 r13725"
   sodipodi:docname="Tactic.svg"><metadata
     id="metadata9"><rdf:RDF><cc:Work
         rdf:about=""><dc:format>image/svg+xml</dc:format><dc:type
           rdf:resource="http://purl.org/dc/dcmitype/StillImage" /><dc:title></dc:title></cc:Work></rdf:RDF></metadata><defs
     id="defs7"><inkscape:path-effect
       effect="skeletal"
       id="path-effect4262"
       is_visible="true"
       pattern="M -1.1444092e-5,0 0.99998856,0"
       copytype="single_stretched"
       prop_scale="1"
       scale_y_rel="false"
       spacing="0"
       normal_offset="0"
       tang_offset="0"
       prop_units="false"
       vertical_pattern="false"
       fuse_tolerance="0" /><inkscape:path-effect
       effect="skeletal"
       id="path-effect4253"
       is_visible="true"
       pattern="M -7.6293945e-6,0 0.99999237,0"
       copytype="single_stretched"
       prop_scale="1"
       scale_y_rel="false"
       spacing="0"
       normal_offset="0"
       tang_offset="0"
       prop_units="false"
       vertical_pattern="false"
       fuse_tolerance="0" /><inkscape:path-effect
       effect="skeletal"
       id="path-effect4249"
       is_visible="true"
       pattern="M -7.6293945e-6,0 0.99999237,0"
       copytype="single_stretched"
       prop_scale="1"
       scale_y_rel="false"
       spacing="0"
       normal_offset="0"
       tang_offset="0"
       prop_units="false"
       vertical_pattern="false"
       fuse_tolerance="0" /></defs><sodipodi:namedview
     pagecolor="#ffffff"
     bordercolor="#666666"
     borderopacity="1"
     objecttolerance="10"
     gridtolerance="10"
     guidetolerance="10"
     inkscape:pageopacity="0"
     inkscape:pageshadow="2"
     inkscape:window-width="2560"
     inkscape:window-height="1384"
     id="namedview5"
     showgrid="false"
     fit-margin-top="0"
     fit-margin-left="0"
     fit-margin-right="0"
     fit-margin-bottom="0"
     inkscape:zoom="8"
     inkscape:cx="7.168839"
     inkscape:cy="37.700778"
     inkscape:window-x="-4"
     inkscape:window-y="-4"
     inkscape:window-maximized="1"
     inkscape:current-layer="Layer_1"
     inkscape:snap-grids="true"
     inkscape:snap-page="false"
     inkscape:snap-text-baseline="false"
     inkscape:snap-smooth-nodes="true"
     inkscape:object-nodes="true"
     borderlayer="false" /><path
     d="M 8.8043815,29.405374 27.55305,26.807816 c 2.608532,-0.39362 4.809458,-1.889153 5.950671,-4.17187 L 41.899867,6.2633924 c 2.934561,-5.66740297 11.249218,-5.66740297 14.183771,0 l 8.314627,16.2938306 c 1.141213,2.282743 3.342139,3.778278 5.950671,4.171841 l 18.748669,2.597614 c 6.521273,0.944576 9.048271,8.579825 4.401853,12.987783 L 79.886323,55.14491 c -1.874906,1.731675 -2.690034,4.250536 -2.282483,6.769398 l 3.179139,18.025563 c 1.141212,6.218443 -5.706142,11.019995 -11.493756,8.028814 l -16.710746,-8.50113 c -2.282454,-1.180665 -5.054015,-1.180665 -7.336441,0 l -16.710774,8.50113 C 22.74362,90.881108 15.977784,86.158314 17.037496,79.939871 L 20.216645,61.914308 C 20.624137,59.474201 19.809058,56.876585 17.934189,55.14491 L 4.4025581,42.393213 C -0.32537344,37.985227 2.2831323,30.271254 8.8043815,29.405374 Z"
     id="estrella"
     inkscape:connector-curvature="0"
     style="opacity:1;fill:#ffdd55;fill-opacity:1;stroke:#817878;stroke-width:4;stroke-linecap:round;stroke-linejoin:round;stroke-miterlimit:4;stroke-dasharray:none;stroke-opacity:1"
     sodipodi:nodetypes="ccccccccccccccccccccc"
     inkscape:export-filename="C:\Users\MA244259\wsMarsR\org.eclipse.papyrus.req.bmm.diagram.common\icons\Tactic.png"
     inkscape:export-xdpi="14"
     inkscape:export-ydpi="14" /><path
     d="m 8.80438,29.405374 4.687168,-0.64939 4.687167,-0.649389 4.687168,-0.64939 4.687167,-0.649389 1.869783,-0.496906 1.655797,-0.880618 1.380674,-1.234823 1.044417,-1.559523 2.099036,-4.093138 2.099037,-4.093139 2.099036,-4.093138 2.099037,-4.093138 3.04156,-3.187914 4.050328,-1.062639 4.050326,1.062639 3.041557,3.187914 2.078656,4.073457 2.078657,4.073458 2.078657,4.073457 2.078657,4.073458 1.044416,1.559538 1.380674,1.234825 1.655797,0.880604 1.869784,0.496874 4.687167,0.649403 4.687167,0.649404 4.687167,0.649403 4.687168,0.649404 4.092354,1.807965 2.296456,3.387158 0.202515,4.036542 -2.189472,3.756118 -3.403284,3.207612 -3.403284,3.207612 -3.403284,3.207612 -3.403283,3.207613 -1.204926,1.43405 -0.792237,1.65545 -0.364277,1.80305 0.07896,1.87685 0.794784,4.50639 0.794785,4.50639 0.794785,4.50639 0.794785,4.50639 -0.500568,4.29854 -2.648001,3.16948 -3.947155,1.44267 -4.398032,-0.88188 -4.177687,-2.12528 -4.177686,-2.12528 -4.177687,-2.12528 -4.177686,-2.12529 -1.788264,-0.66412 -1.879967,-0.22137 -1.879963,0.22137 -1.788247,0.66412 -4.177694,2.12529 -4.177693,2.12528 -4.177694,2.12528 -4.177693,2.12528 -4.386585,0.84865 -3.928056,-1.43898 -2.644177,-3.15101 -0.534948,-4.28747 0.794787,-4.50639 0.794787,-4.50639 0.794788,-4.50639 0.794787,-4.50639 0.07893,-1.84362 L 19.931305,58.26395 19.13909,56.59004 17.934192,55.14491 14.551284,51.956985 11.168376,48.769061 7.785468,45.581137 4.402561,42.393213 2.178698,38.626008 2.385029,34.571004 4.700581,31.180144 Z"
     id="PapyrusPath"
     inkscape:connector-curvature="0"
     style="opacity:1;fill:none;fill-opacity:1;stroke:none;stroke-width:4;stroke-linecap:round;stroke-linejoin:round;stroke-miterlimit:4;stroke-dasharray:none;stroke-opacity:1"
     sodipodi:nodetypes="ccccccccccccccccccccccccccccccccccccccccccccccccccccccccccccccccccccccccccccccccc"
     inkscape:export-filename="C:\Users\MA244259\wsMarsR\org.eclipse.papyrus.req.bmm.diagram.common\icons\Tactic.png"
     inkscape:export-xdpi="14"
     inkscape:export-ydpi="14" /></svg>