<?xml version="1.0" encoding="UTF-8" standalone="no"?>
<svg
   xmlns:dc="http://purl.org/dc/elements/1.1/"
   xmlns:cc="http://creativecommons.org/ns#"
   xmlns:rdf="http://www.w3.org/1999/02/22-rdf-syntax-ns#"
   xmlns:svg="http://www.w3.org/2000/svg"
   xmlns="http://www.w3.org/2000/svg"
   xmlns:sodipodi="http://sodipodi.sourceforge.net/DTD/sodipodi-0.dtd"
   xmlns:inkscape="http://www.inkscape.org/namespaces/inkscape"
   width="53px"
   height="53px"
   version="1.1"
   id="svg2"
   inkscape:version="0.48.5 r10040"
   sodipodi:docname="EndEvent.svg">
  <metadata
     id="metadata12">
    <rdf:RDF>
      <cc:Work
         rdf:about="">
        <dc:format>image/svg+xml</dc:format>
        <dc:type
           rdf:resource="http://purl.org/dc/dcmitype/StillImage" />
      </cc:Work>
    </rdf:RDF>
  </metadata>
  <sodipodi:namedview
     pagecolor="#ffffff"
     bordercolor="#666666"
     borderopacity="1"
     objecttolerance="10"
     gridtolerance="10"
     guidetolerance="10"
     inkscape:pageopacity="0"
     inkscape:pageshadow="2"
     inkscape:window-width="1640"
     inkscape:window-height="1095"
     id="namedview10"
     showgrid="false"
     inkscape:zoom="12.594506"
     inkscape:cx="12.30789"
     inkscape:cy="26.784732"
     inkscape:window-x="0"
     inkscape:window-y="0"
     inkscape:window-maximized="0"
     inkscape:current-layer="svg2" />
  <defs
     id="defs4" />
  <g
     transform="translate(0.5,0.5)"
     id="g6">
    <ellipse
       cx="26"
       cy="26"
       rx="25"
       ry="25"
       fill="#ffffff"
       stroke="#000000"
       stroke-width="3"
       pointer-events="none"
       id="ellipse8"
       d="M 51,26 C 51,39.807119 39.807119,51 26,51 12.192881,51 1,39.807119 1,26 1,12.192881 12.192881,1 26,1 39.807119,1 51,12.192881 51,26 z" />
  </g>
  <path
     style="fill:none;stroke:none"
     d="m 0.95279643,20.525522 -0.55579792,4.763982 -0.0793997,3.652386 0.95279639,4.049385 1.349795,4.128785 1.2703952,2.46139 2.3819911,3.652387 3.9699855,3.969985 6.034377,3.572986 4.446383,1.429195 5.160981,0.635198 4.684582,-0.317599 5.002182,-1.349795 5.875578,-2.937789 3.175988,-2.858389 2.778989,-3.017189 2.381991,-3.811186 1.905593,-5.002181 1.111596,-5.160981 -0.238199,-5.637379 -1.429195,-5.08158 L 48.910217,12.664951 44.940231,7.6627701 39.779251,3.6927849 34.77707,1.548993 30.013087,0.43739715 25.249105,0.27859775 21.517319,0.75499596 17.229735,1.7871921 12.386354,4.2485829 8.257569,7.2657715 5.3991797,10.918158 3.2553878,14.967543 z"
     id="PapyrusPath"
     inkscape:connector-curvature="0" />
</svg>
