<?xml version="1.0" encoding="UTF-8" standalone="no"?>
<!-- Created with Inkscape (http://www.inkscape.org/) -->

<svg
   xmlns:dc="http://purl.org/dc/elements/1.1/"
   xmlns:cc="http://creativecommons.org/ns#"
   xmlns:rdf="http://www.w3.org/1999/02/22-rdf-syntax-ns#"
   xmlns:svg="http://www.w3.org/2000/svg"
   xmlns="http://www.w3.org/2000/svg"
   xmlns:sodipodi="http://sodipodi.sourceforge.net/DTD/sodipodi-0.dtd"
   xmlns:inkscape="http://www.inkscape.org/namespaces/inkscape"
   id="svg2"
   version="1.1"
   inkscape:version="0.48.5 r10040"
   width="196.21095"
   height="173.02692"
   sodipodi:docname="RightDoor.svg">
  <metadata
     id="metadata8">
    <rdf:RDF>
      <cc:Work
         rdf:about="">
        <dc:format>image/svg+xml</dc:format>
        <dc:type
           rdf:resource="http://purl.org/dc/dcmitype/StillImage" />
        <dc:title></dc:title>
      </cc:Work>
    </rdf:RDF>
  </metadata>
  <defs
     id="defs6" />
  <sodipodi:namedview
     pagecolor="#ffffff"
     bordercolor="#666666"
     borderopacity="1"
     objecttolerance="10"
     gridtolerance="10"
     guidetolerance="10"
     inkscape:pageopacity="0"
     inkscape:pageshadow="2"
     inkscape:window-width="1920"
     inkscape:window-height="1178"
     id="namedview4"
     showgrid="false"
     inkscape:zoom="4.72"
     inkscape:cx="87.436798"
     inkscape:cy="75.268034"
     inkscape:window-x="1912"
     inkscape:window-y="-8"
     inkscape:window-maximized="1"
     inkscape:current-layer="svg2"
     fit-margin-top="0"
     fit-margin-left="0"
     fit-margin-right="0"
     fit-margin-bottom="0" />
  <path
     style="fill:#000000"
     d="m 162.39922,172.65696 c 0,-0.39347 5.77746,-20.26687 6.50617,-22.38004 0.34262,-0.99354 -16.89943,-1.25 -84.037554,-1.25 l -84.46862041,0 0,12 0,12 81.00000041,0 c 44.550004,0 81.000004,-0.16648 81.000004,-0.36996 z m 7.35452,-26.39465 c 0.25991,-0.42054 6.40893,-21.15352 13.66449,-46.07328 l 13.19194,-45.308668 -2.35548,-2.561217 C 188.76134,46.345966 163.13565,23.08067 154.07725,15.842471 142.98695,6.9806653 139.74315,5.1286603 130.11499,2.1615423 123.56143,0.1419273 121.27411,0.0685593 62.842556,0.0037243 29.574046,-0.0331857 1.9144456,0.2084853 1.3767856,0.5407793 0.75448559,0.9253833 0.39921559,27.653059 0.39921559,74.085933 l 0,72.940987 84.44098041,0 c 46.442544,0 84.653644,-0.34408 84.913544,-0.76461 z m -35.89998,-43.68994 c -1.35,-1.35 -2.45454,-3.620454 -2.45454,-5.045454 0,-1.425 1.10454,-3.69545 2.45454,-5.04545 2.37757,-2.37757 2.90375,-2.45455 16.7775,-2.45455 11.34492,0 14.78505,0.32367 16.54545,1.5567 1.22238,0.85619 2.22251,2.19145 2.22251,2.96725 0,1.11372 -2.3674,1.47005 -11.25,1.6933 -9.20767,0.23142 -11.25,0.55506 -11.25,1.78275 0,1.22832 2.05065,1.55133 11.32219,1.78343 8.34541,0.208914 11.21672,0.603284 10.92103,1.500004 -0.92895,2.81716 -5.40392,3.68726 -19.03868,3.70183 -13.32311,0.0142 -13.87949,-0.0693 -16.25,-2.43981 z m 8.49241,-2.981534 c 0.89941,-1.08372 0.91285,-1.95737 0.0548,-3.56068 -2.06279,-3.85436 -8.26564,-0.7393 -6.69227,3.36084 0.77476,2.018994 5.02161,2.146854 6.63748,0.19984 z M 9.8992156,46.026916 l 0,-35.5 53.0000004,-0.26888 c 33.42656,-0.169581 54.781574,0.109369 57.824054,0.755325 12.58574,2.672107 30.45505,14.879519 50.56229,34.541594 l 12.61366,12.334408 -3.40461,9.818776 c -1.87253,5.400328 -3.77488,10.833879 -4.22745,12.07456 l -0.82284,2.255782 -82.772554,-0.255782 -82.7725504,-0.255783 0,-35.5 z"
     id="path2987"
     inkscape:connector-curvature="0" />
  <path
     style="fill:none;stroke:none"
     d="m 196.82203,54.594713 -34.5339,118.644067 -162.07627441,-0.21186 -0.42372,-115.042376 0.84745,-27.542373 -0.21186,-12.5 0.42373,-14.6186445 L 1.4830456,0.3574248 111.65254,0.14556039 l 11.44068,0.42372881 5.72034,1.059322 4.87288,1.2711865 5.50847,2.1186441 8.05085,5.0847462 13.13559,10.805084 z"
     id="PapyrusPath"
     inkscape:connector-curvature="0"
     sodipodi:nodetypes="cccccccccccccccc" />
</svg>
