<?xml version="1.0" encoding="UTF-8" standalone="no"?>
<!-- Created with Inkscape (http://www.inkscape.org/) -->

<svg
   xmlns:dc="http://purl.org/dc/elements/1.1/"
   xmlns:cc="http://creativecommons.org/ns#"
   xmlns:rdf="http://www.w3.org/1999/02/22-rdf-syntax-ns#"
   xmlns:svg="http://www.w3.org/2000/svg"
   xmlns="http://www.w3.org/2000/svg"
   xmlns:sodipodi="http://sodipodi.sourceforge.net/DTD/sodipodi-0.dtd"
   xmlns:inkscape="http://www.inkscape.org/namespaces/inkscape"
   id="svg2"
   version="1.1"
   inkscape:version="0.48.5 r10040"
   width="196.21095"
   height="173.02692"
   sodipodi:docname="CarDoor.png">
  <metadata
     id="metadata8">
    <rdf:RDF>
      <cc:Work
         rdf:about="">
        <dc:format>image/svg+xml</dc:format>
        <dc:type
           rdf:resource="http://purl.org/dc/dcmitype/StillImage" />
        <dc:title></dc:title>
      </cc:Work>
    </rdf:RDF>
  </metadata>
  <defs
     id="defs6" />
  <sodipodi:namedview
     pagecolor="#ffffff"
     bordercolor="#666666"
     borderopacity="1"
     objecttolerance="10"
     gridtolerance="10"
     guidetolerance="10"
     inkscape:pageopacity="0"
     inkscape:pageshadow="2"
     inkscape:window-width="1920"
     inkscape:window-height="1178"
     id="namedview4"
     showgrid="false"
     inkscape:zoom="4.72"
     inkscape:cx="87.436798"
     inkscape:cy="75.268034"
     inkscape:window-x="1912"
     inkscape:window-y="-8"
     inkscape:window-maximized="1"
     inkscape:current-layer="svg2"
     fit-margin-top="0"
     fit-margin-left="0"
     fit-margin-right="0"
     fit-margin-bottom="0" />
  <path
     style="fill:#000000"
     d="m 34.210947,172.65696 c 0,-0.39347 -5.777461,-20.26687 -6.506176,-22.38004 -0.342615,-0.99354 16.899439,-1.25 84.037559,-1.25 l 84.46862,0 0,12 0,12 -81,0 c -44.550003,0 -81.000003,-0.16648 -81.000003,-0.36996 z M 26.856424,146.26231 C 26.596517,145.84177 20.447496,125.10879 13.191933,100.18903 L 0,54.880362 2.3554737,52.319145 C 7.8488254,46.345966 33.474519,23.08067 42.532917,15.842471 53.623211,6.9806653 56.867012,5.1286603 66.495175,2.1615423 c 6.553558,-2.019615 8.840885,-2.092983 67.272435,-2.157818 33.26851,-0.03691 60.92811,0.204761 61.46577,0.537055 0.6223,0.384604 0.97757,27.1122797 0.97757,73.5451537 l 0,72.940987 -84.44098,0 c -46.442547,0 -84.65364,-0.34408 -84.913546,-0.76461 z m 35.899978,-43.68994 c 1.35,-1.35 2.454545,-3.620454 2.454545,-5.045454 0,-1.425 -1.104545,-3.69545 -2.454545,-5.04545 -2.377566,-2.37757 -2.903747,-2.45455 -16.777494,-2.45455 -11.34492,0 -14.785052,0.32367 -16.545455,1.5567 -1.222378,0.85619 -2.222506,2.19145 -2.222506,2.96725 0,1.11372 2.367398,1.47005 11.25,1.6933 9.207666,0.23142 11.25,0.55506 11.25,1.78275 0,1.22832 -2.050655,1.55133 -11.322191,1.78343 -8.345415,0.208914 -11.21672,0.603284 -10.921031,1.500004 0.928946,2.81716 5.403916,3.68726 19.038677,3.70183 13.323115,0.0142 13.879495,-0.0693 16.25,-2.43981 z m -8.492404,-2.981534 c -0.899408,-1.08372 -0.91285,-1.95737 -0.05478,-3.56068 2.062788,-3.85436 8.265636,-0.7393 6.692265,3.36084 -0.774759,2.018994 -5.021606,2.146854 -6.637481,0.19984 z m 132.446952,-53.56392 0,-35.5 -53,-0.26888 C 100.28439,10.088455 78.929376,10.367405 75.886896,11.013361 63.301156,13.685468 45.431841,25.89288 25.32461,45.554955 l -12.613663,12.334408 3.404607,9.818776 c 1.872534,5.400328 3.774885,10.833879 4.227448,12.07456 l 0.82284,2.255782 82.772558,-0.255782 82.77255,-0.255783 0,-35.5 z"
     id="path2987"
     inkscape:connector-curvature="0" />
  <path
     style="fill:none;stroke:none"
     d="M -0.21186441,54.594713 34.322034,173.23878 l 162.076276,-0.21186 0.42372,-115.042376 -0.84745,-27.542373 0.21186,-12.5 L 195.76271,3.3235265 195.12712,0.3574248 84.957627,0.14556039 73.516949,0.5692892 67.79661,1.6286112 62.923729,2.8997977 57.415254,5.0184418 49.364407,10.103188 36.228813,20.908272 z"
     id="PapyrusPath"
     inkscape:connector-curvature="0"
     sodipodi:nodetypes="cccccccccccccccc" />
</svg>
