<?xml version="1.0" encoding="UTF-8" standalone="no"?>
<!-- Created with Sodipodi ("http://www.sodipodi.com/") -->

<svg
   xmlns:dc="http://purl.org/dc/elements/1.1/"
   xmlns:cc="http://creativecommons.org/ns#"
   xmlns:rdf="http://www.w3.org/1999/02/22-rdf-syntax-ns#"
   xmlns:svg="http://www.w3.org/2000/svg"
   xmlns="http://www.w3.org/2000/svg"
   xmlns:xlink="http://www.w3.org/1999/xlink"
   xmlns:sodipodi="http://sodipodi.sourceforge.net/DTD/sodipodi-0.dtd"
   xmlns:inkscape="http://www.inkscape.org/namespaces/inkscape"
   id="svg171"
   sodipodi:version="0.32"
   width="358.84842"
   height="789.3559"
   sodipodi:docname="Roof.svg"
   inkscape:version="0.91 r13725"
   version="1.0">
  <defs
     id="defs173">
    <linearGradient
       id="linearGradient239">
      <stop
         style="stop-color:#f8ce00;stop-opacity:1;"
         offset="0.000000"
         id="stop240" />
      <stop
         style="stop-color:#b79700;stop-opacity:1;"
         offset="1.000000"
         id="stop241" />
    </linearGradient>
    <linearGradient
       id="linearGradient231">
      <stop
         style="stop-color:#000;stop-opacity:1;"
         offset="0"
         id="stop232" />
      <stop
         style="stop-color:#fff;stop-opacity:1;"
         offset="1"
         id="stop233" />
    </linearGradient>
    <linearGradient
       xlink:href="#linearGradient239"
       id="linearGradient234"
       x1="0.55363399"
       y1="-0.125496"
       x2="0.570934"
       y2="1.33928"
       gradientUnits="objectBoundingBox"
       gradientTransform="translate(1.44297e-8,-1.13124e-6)"
       spreadMethod="pad" />
    <radialGradient
       xlink:href="#linearGradient239"
       id="radialGradient242"
       r="2.4611101"
       fy="0.47656199"
       fx="0.50877202"
       cy="0.47656199"
       cx="0.50877202"
       spreadMethod="pad"
       gradientUnits="objectBoundingBox" />
    <radialGradient
       xlink:href="#linearGradient239"
       id="radialGradient271"
       cx="0.46583599"
       cy="0.46094501"
       fx="0.46583599"
       fy="0.46094501"
       r="0.540039"
       gradientUnits="objectBoundingBox"
       spreadMethod="pad" />
    <radialGradient
       xlink:href="#linearGradient239"
       id="radialGradient273"
       cx="-0.80000901"
       cy="0.39843601"
       fx="-0.80000901"
       fy="0.39843601"
       r="0.201377"
       gradientUnits="objectBoundingBox"
       spreadMethod="pad" />
    <radialGradient
       xlink:href="#linearGradient239"
       id="radialGradient276" />
    <radialGradient
       xlink:href="#linearGradient239"
       id="radialGradient362" />
    <linearGradient
       xlink:href="#linearGradient239"
       id="linearGradient363" />
    <linearGradient
       xlink:href="#linearGradient239"
       id="linearGradient646" />
    <linearGradient
       inkscape:collect="always"
       xlink:href="#linearGradient239"
       id="linearGradient3181"
       gradientUnits="userSpaceOnUse"
       gradientTransform="matrix(2.280351,0,0,0.438529,-185.326,-121.8394)"
       spreadMethod="pad"
       x1="165.01989"
       y1="1956.5855"
       x2="166.88377"
       y2="2114.3986" />
  </defs>
  <sodipodi:namedview
     id="base"
     inkscape:zoom="1.0159482"
     inkscape:cx="381.74669"
     inkscape:cy="429.31383"
     inkscape:window-width="1920"
     inkscape:window-height="1125"
     inkscape:window-x="1911"
     inkscape:window-y="-9"
     inkscape:current-layer="svg171"
     showgrid="false"
     inkscape:window-maximized="1" />
  <g
     id="g786"
     transform="matrix(-1,0,0,-1,282.646,766.1226)"
     style="fill:#4a00ad;fill-opacity:1">
    <path
       inkscape:connector-curvature="0"
       style="fill:#4a00ad;fill-opacity:1;fill-rule:nonzero;stroke:none"
       id="path787"
       d="m 76.616,699.191 c -5.4727,-0.321 -11.1367,-0.388 -16.567,0.34 -3.5734,0.712 -11.4734,3.767 -7.655,8.677 5.2454,5.042 14.5306,4.269 21.1612,3.703 l 0.5137,5.994 c -9.1289,0.75 -20.1652,0.992 -26.8406,-6.329 -5.9809,-9.521 3.3763,-16.399 12.0254,-18.017 5.7819,-0.733 11.5642,-0.349 17.3623,-0.688 l 0,6.32 z" />
    <path
       inkscape:connector-curvature="0"
       style="fill:#4a00ad;fill-opacity:1;fill-rule:nonzero;stroke:none"
       id="path788"
       d="m 76.616,699.191 c -5.4727,-0.321 -11.1367,-0.388 -16.567,0.34 -3.5734,0.712 -11.4734,3.767 -7.655,8.677 5.2454,5.042 14.5306,4.269 21.1612,3.703 l 0.5137,5.994 c -9.1289,0.75 -20.1652,0.992 -26.8406,-6.329 -5.9809,-9.521 3.3763,-16.399 12.0254,-18.017 5.7819,-0.733 11.5642,-0.349 17.3623,-0.688 l 0,6.32 z"
       transform="matrix(1,0,0,-1,0,1429.96)" />
    <path
       inkscape:connector-curvature="0"
       style="fill:#4a00ad;fill-opacity:1;fill-rule:nonzero;stroke:none"
       id="path789"
       d="m 97.4725,715.314 c -1.4986,-0.143 -3.0393,-0.081 -4.5417,-0.089 -1.2715,-0.004 -5.5397,-0.655 -6.3316,0.724 -0.2793,0.983 0.196,2.108 1.022,2.657 2.002,1.029 4.7046,0.505 6.8526,0.402 2.6281,-0.126 6.1922,-0.416 6.9952,2.782 0.249,2.611 -1.378,5.115 -3.4074,6.63 -2.6849,1.651 -5.7413,1.346 -8.7364,0.969 -1.7834,-0.237 -3.5619,-0.51 -5.3498,-0.711 l 0.3288,-2.76 c 1.7937,0.214 3.576,0.511 5.3666,0.748 2.19,0.268 4.7033,0.675 6.7086,-0.491 1.154,-0.815 2.2671,-2.318 2.2757,-3.791 0.0105,-1.097 -3.415,-0.664 -4.039,-0.633 -2.8978,0.155 -6.0482,0.623 -8.678,-0.876 -2.1183,-1.588 -3.0545,-4.623 -1.4109,-6.885 2.1458,-2.038 5.6768,-1.512 8.4036,-1.521 1.5024,-0.007 3.0431,0.055 4.5417,-0.088 l 0,2.933 z"
       transform="matrix(1.37761,0,0,1.37761,-36.3083,-268.329)" />
    <g
       id="g790"
       transform="matrix(1.16605,0,0,1.06243,-26.2102,-45.238)"
       style="fill:#4a00ad;fill-opacity:1">
      <path
         inkscape:connector-curvature="0"
         style="fill:#4a00ad;fill-opacity:1;fill-rule:nonzero;stroke:none"
         id="path791"
         d="m 109.26,713.835 c 2.054,0.228 4.181,0.138 6.242,0.15 3.888,0.015 7.776,-0.017 11.665,-0.034 0.779,-0.005 1.559,-0.011 2.338,-0.036 l 0,3.227 c -0.779,-0.026 -1.559,-0.032 -2.338,-0.037 -3.889,-0.017 -7.777,-0.049 -11.665,-0.034 -2.061,0.012 -4.188,-0.078 -6.242,0.15 l 0,-3.386 z" />
      <path
         inkscape:connector-curvature="0"
         style="fill:#4a00ad;fill-opacity:1;fill-rule:nonzero;stroke:none"
         id="path792"
         d="m 119.37,715.871 c -0.159,1.242 -0.079,2.551 -0.087,3.798 -0.011,2.488 -0.012,4.976 0.006,7.465 0.012,1.648 0.028,3.296 0.032,4.944 0.001,0.986 -0.002,1.973 -0.004,2.959 l -3.321,0 c -0.002,-0.986 -0.005,-1.973 -0.003,-2.959 0.003,-1.648 0.019,-3.296 0.031,-4.944 0.018,-2.489 0.018,-4.977 0.007,-7.465 -0.009,-1.247 0.072,-2.556 -0.088,-3.798 l 3.427,0 z"
         transform="translate(1.34464,0.336121)" />
    </g>
    <g
       id="g793"
       style="fill:#4a00ad;fill-opacity:1">
      <path
         inkscape:connector-curvature="0"
         style="fill:#4a00ad;fill-opacity:1;fill-rule:nonzero;stroke:none"
         id="path794"
         d="m 129.455,713.855 c -0.219,1.706 -0.114,3.502 -0.134,5.217 -0.046,4.31 -0.051,8.621 -0.008,12.932 0.017,1.411 0.038,2.823 0.066,4.234 l -3.275,0 c 0.027,-1.411 0.049,-2.823 0.066,-4.234 0.043,-4.311 0.037,-8.622 -0.008,-12.932 -0.021,-1.715 0.085,-3.511 -0.134,-5.217 l 3.427,0 z" />
      <path
         inkscape:connector-curvature="0"
         style="fill:#4a00ad;fill-opacity:1;fill-rule:nonzero;stroke:none"
         id="path795"
         d="m 127.413,712.827 c 1.41,0.156 2.863,0.074 4.28,0.113 3.027,0.138 5.689,1.021 6.086,4.411 0.091,3.395 -1.772,5.431 -5.069,6.06 -1.547,0.195 -3.059,0.136 -4.605,-0.029 l 0.353,-3.167 c 1.221,0.137 2.422,0.2 3.645,0.051 1.605,-0.296 2.418,-0.88 2.405,-2.576 -0.124,-1.535 -1.597,-1.488 -2.895,-1.55 -1.383,-0.028 -2.821,-0.081 -4.2,0.073 l 0,-3.386 z" />
      <path
         inkscape:connector-curvature="0"
         style="fill:#4a00ad;fill-opacity:1;fill-rule:nonzero;stroke:none"
         id="path796"
         d="m 128.757,721.903 c 1.223,0.136 2.492,0.072 3.72,0.082 2.638,0.021 5.597,-0.184 7.788,1.535 1.853,1.96 1.215,4.372 0.521,6.696 -0.472,1.573 -0.874,3.118 -0.925,4.767 -0.003,0.322 0,0.641 0.008,0.962 l -3.305,0.084 c -0.01,-0.383 -0.013,-0.765 -0.009,-1.148 0.062,-1.931 0.526,-3.743 1.082,-5.583 0.252,-0.844 0.953,-2.406 0.486,-3.29 -1.116,-1.268 -4.173,-0.813 -5.646,-0.801 -1.228,0.01 -2.497,-0.054 -3.72,0.082 l 0,-3.386 z" />
      <rect
         style="font-size:12px;fill:#4a00ad;fill-opacity:1;fill-rule:evenodd;stroke-width:1pt"
         id="rect797"
         width="2.3531401"
         height="3.02545"
         x="126.061"
         y="712.83899" />
    </g>
    <path
       inkscape:connector-curvature="0"
       style="font-size:12px;fill:#4a00ad;fill-opacity:1;fill-rule:evenodd;stroke-width:1pt"
       d="m 165.392,724.773 c 0,6.958 -5.196,12.606 -11.598,12.606 -6.402,0 -11.597,-5.648 -11.597,-12.606 0,-6.959 5.195,-12.606 11.597,-12.606 6.402,0 11.598,5.647 11.598,12.606 z m -3.698,-0.322 c 0,4.739 -3.54,8.586 -7.9,8.586 -4.361,0 -7.9,-3.847 -7.9,-8.586 0,-4.741 3.539,-8.587 7.9,-8.587 4.36,0 7.9,3.846 7.9,8.587 z"
       id="path798" />
  </g>
  <path
     style="font-style:normal;font-variant:normal;font-weight:normal;font-stretch:normal;font-size:12px;line-height:normal;font-family:sans-serif;text-indent:0;text-align:start;text-decoration:none;text-decoration-line:none;text-decoration-style:solid;letter-spacing:normal;word-spacing:normal;text-transform:none;direction:ltr;block-progression:tb;writing-mode:lr-tb;baseline-shift:baseline;text-anchor:start;white-space:normal;clip-rule:nonzero;display:inline;overflow:visible;visibility:visible;opacity:1;isolation:auto;mix-blend-mode:normal;color-interpolation:sRGB;color-interpolation-filters:linearRGB;solid-color:#000000;solid-opacity:1;fill:none;fill-opacity:1;fill-rule:evenodd;stroke:none;stroke-width:1pt;stroke-linecap:butt;stroke-linejoin:miter;stroke-miterlimit:4;stroke-dasharray:none;stroke-dashoffset:0;stroke-opacity:1;color-rendering:auto;image-rendering:auto;shape-rendering:auto;text-rendering:auto;enable-background:accumulate"
     d="M 141.62305,1.6308594 68.098702,7.3194125 34.779835,17.190316 15.603516,55.605469 9.5113072,97.189443 l 4.5586798,54.144577 -2.65013,61.83103 11.94807,119.06211 -7.267986,105.60279 2.775184,206.67599 8.146708,102.55164 27.606856,24.61282 42.552695,8.38152 78.916086,3.55779 72.09798,-3.94575 56.95968,-7.98031 24.16915,-27.66322 4.31102,-49.94608 5.80345,-134.90374 -1.21736,-137.19588 -4.62178,-58.50598 2.66508,-74.4829 7.31341,-114.11724 -0.68486,-40.81692 0.57967,-51.618728 L 325.95088,26.627697 300.10887,8.4899013 173.01201,0.19109388 Z"
     id="PapyrusPath"
     inkscape:connector-curvature="0"
     sodipodi:nodetypes="ccccccccccccccccccccccccccccc" />
  <path
     style="font-style:normal;font-variant:normal;font-weight:normal;font-stretch:normal;font-size:12px;line-height:normal;font-family:sans-serif;text-indent:0;text-align:start;text-decoration:none;text-decoration-line:none;text-decoration-style:solid;text-decoration-color:#000000;letter-spacing:normal;word-spacing:normal;text-transform:none;direction:ltr;block-progression:tb;writing-mode:lr-tb;baseline-shift:baseline;text-anchor:start;white-space:normal;clip-rule:nonzero;display:inline;overflow:visible;visibility:visible;opacity:1;isolation:auto;mix-blend-mode:normal;color-interpolation:sRGB;color-interpolation-filters:linearRGB;solid-color:#000000;solid-opacity:1;fill:none;fill-opacity:1;fill-rule:evenodd;stroke:none;stroke-width:1pt;stroke-linecap:butt;stroke-linejoin:miter;stroke-miterlimit:4;stroke-dasharray:none;stroke-dashoffset:0;stroke-opacity:1;color-rendering:auto;image-rendering:auto;shape-rendering:auto;text-rendering:auto;enable-background:accumulate"
     d="m 177.17771,1.25 c 86.07345,1.2005637 123.00007,3.9012329 140.87305,17.259766 8.93751,6.680025 13.2485,16.033852 16.69727,29.455078 3.4414,13.392549 5.99521,30.797005 11.39257,53.308596 -7.10521,43.22477 -6.43809,53.19873 -4.86914,62.86328 1.5707,9.67531 4.00878,18.97374 0.44141,61.54883 l 0,0.01 0,0.01 c -1.87376,36.44661 -5.91173,57.14815 -8.55469,76.36719 -2.64296,19.21903 -3.88109,36.95159 -0.1289,67.26757 l 0.01,0.0742 0.0254,0.0684 c 1.17731,3.13968 2.26299,11.21429 3.10157,22.77149 0.83857,11.5572 1.47116,26.66609 1.89648,44.16797 0.85065,35.00375 0.87069,79.58537 0.0566,124.54101 -0.81405,44.95564 -2.46236,90.28679 -4.95117,126.79297 -1.24441,18.25309 -2.70013,34.30181 -4.36328,46.98437 -1.64445,12.53993 -3.51689,21.78315 -5.51758,26.53711 -12.94085,7.42164 -36.66941,12.73546 -63.31055,16.13672 -26.76232,3.41673 -56.47115,4.94336 -81.25,4.94336 l -0.006,0 -0.008,0 C 122.2169,783.53763 89.675064,779.06011 69.189453,773.88477 48.988373,768.7813 40.536947,763.01863 32.107422,761.21875 30.114429,756.45025 28.248217,747.23741 26.609375,734.74023 24.946222,722.05767 23.492451,706.00895 22.248047,687.75586 19.759238,651.24968 18.10897,605.91853 17.294922,560.96289 16.480873,516.00725 16.502869,471.42563 17.353516,436.42188 17.778839,418.92 18.411427,403.81111 19.25,392.25391 c 0.838573,-11.5572 1.924258,-19.63181 3.101562,-22.77149 l 0.02539,-0.0684 0.0078,-0.0742 c 3.752191,-30.31598 2.516006,-48.04854 -0.126954,-67.26757 -2.642959,-19.21904 -6.680929,-39.92058 -8.554687,-76.36719 l -0.002,-0.01 0,-0.01 C 10.133743,183.10997 12.57377,173.81154 14.14447,164.13623 15.713334,154.47222 16.37927,144.49741 9.2753296,101.27881 14.674835,78.746559 16.193406,61.708699 18.335938,48.78125 20.482621,35.828751 23.224295,27.085308 31.041016,20.814453 38.857736,14.543598 51.919863,10.683642 74.783203,7.9003906 97.644324,5.1174094 130.27261,3.3941167 177.17773,1.25 Z"
     id="path184"
     inkscape:connector-curvature="0" />
  <path
     inkscape:connector-curvature="0"
     style="fill:#000000;fill-opacity:0.70440297;fill-rule:evenodd;stroke:#000000;stroke-width:1pt;stroke-linecap:butt;stroke-linejoin:miter;stroke-opacity:1"
     d="m 45.5104,260.195 c 0,0 63.783,-24.762 134.947,-25.395 64.078,-0.59 93.017,8.859 131.995,23.033 -4.724,44.885 -9.449,87.405 -21.261,101.579 -108.667,-25.986 -115.753,-25.985 -224.42,0.001 -2.362,-14.174 -23.623,-96.856 -21.261,-99.218 z"
     id="path185"
     sodipodi:nodetypes="cscccc" />
  <path
     inkscape:connector-curvature="0"
     style="fill:#000000;fill-opacity:0.78616399;fill-rule:evenodd;stroke:#000000;stroke-width:1pt;stroke-linecap:butt;stroke-linejoin:miter;stroke-opacity:1"
     d="m 80.9454,536.588 c -11.812,56.695 -21.261,165.363 -21.261,165.363 18.899,16.536 115.754,23.623 118.116,23.623 7.087,0 103.943,-7.087 120.479,-30.71 0,-14.174 -9.45,-115.754 -18.899,-160.638 -82.681,11.811 -193.71,7.087 -198.435,2.362 z"
     id="path188"
     sodipodi:nodetypes="cccccc" />
  <path
     inkscape:connector-curvature="0"
     style="fill:none;stroke:#000000;stroke-width:1pt;stroke-linecap:butt;stroke-linejoin:miter;stroke-opacity:0.37106904"
     d="m 112.2854,10.38 c 37.098,-6.547 99.837,-6.002 126.569,-2.729"
     id="path307"
     sodipodi:nodetypes="cc" />
  <path
     inkscape:connector-curvature="0"
     style="fill:none;stroke:#000000;stroke-width:1pt;stroke-linecap:butt;stroke-linejoin:miter;stroke-opacity:0.37106904"
     d="m 112.2854,13.1078 c 37.098,-6.547 99.837,-6.002 126.569,-2.729"
     id="path308"
     sodipodi:nodetypes="cc" />
  <path
     inkscape:connector-curvature="0"
     style="fill:none;stroke:#000000;stroke-width:1pt;stroke-linecap:butt;stroke-linejoin:miter;stroke-opacity:0.37106904"
     d="m 112.2854,16.3811 c 37.098,-6.547 99.837,-6.002 126.569,-2.729"
     id="path309"
     sodipodi:nodetypes="cc" />
  <path
     inkscape:connector-curvature="0"
     style="fill:none;stroke:#000000;stroke-width:1pt;stroke-linecap:butt;stroke-linejoin:miter;stroke-opacity:0.37106904"
     d="m 112.2854,20.1999 c 37.098,-6.001 98.2,-4.911 124.387,-3.275"
     id="path310"
     sodipodi:nodetypes="cc" />
  <path
     inkscape:connector-curvature="0"
     style="fill:#000000;fill-opacity:0.68553503;fill-rule:evenodd;stroke:#000000;stroke-width:1pt;stroke-linecap:butt;stroke-linejoin:miter;stroke-opacity:1"
     d="m 43.1484,295.63 c 0,0 16.536,75.595 16.536,75.595 0,0 0,141.739 -2.362,144.102 -2.363,2.362 -21.261,42.521 -21.261,42.521 0,0 4.724,-257.493 7.087,-262.218 z"
     id="path186" />
  <path
     id="path211"
     style="fill:none;stroke:#000000;stroke-width:1pt;stroke-linecap:butt;stroke-linejoin:miter;stroke-opacity:1"
     d="m 36.35,310.5283 c -2.333,25.667 -14.991005,443.4545 4.666,443.345 69.85641,26.46665 221.62204,23.58419 278.5244,-7.0003 17.53027,-0.0711 6.999,-417.678 4.666,-443.345"
     inkscape:connector-curvature="0"
     sodipodi:nodetypes="cccc" />
  <path
     inkscape:connector-curvature="0"
     style="fill:#000000;fill-opacity:0.74842799;fill-rule:evenodd;stroke:#000000;stroke-width:1pt;stroke-linecap:butt;stroke-linejoin:miter;stroke-opacity:1"
     d="m 317.178,290.90542 c 0,0 -16.536,75.595 -16.536,75.595 0,0 0,141.739 2.362,144.102 2.363,2.362 21.261,42.521 21.261,42.521 0,0 -4.724,-257.493 -7.087,-262.218 z"
     id="path187" />
  <metadata
     id="metadata61">
    <rdf:RDF>
      <cc:Work>
        <dc:format>image/svg+xml</dc:format>
        <dc:type
           rdf:resource="http://purl.org/dc/dcmitype/StillImage" />
        <cc:license
           rdf:resource="http://creativecommons.org/publicdomain/zero/1.0/" />
        <dc:publisher>
          <cc:Agent
             rdf:about="http://openclipart.org/">
            <dc:title>Open Clip Art Library</dc:title>
          </cc:Agent>
        </dc:publisher>
        <dc:title></dc:title>
        <dc:date>2012-11-14T02:03:21</dc:date>
        <dc:description>Top view of a car</dc:description>
        <dc:source>http://openclipart.org/detail/173138/top-view-xar-by-jonadem-173138</dc:source>
        <dc:creator>
          <cc:Agent>
            <dc:title>jonadem</dc:title>
          </cc:Agent>
        </dc:creator>
        <dc:subject>
          <rdf:Bag>
            <rdf:li>car</rdf:li>
            <rdf:li>clip art</rdf:li>
            <rdf:li>clipart</rdf:li>
            <rdf:li>image</rdf:li>
            <rdf:li>png</rdf:li>
            <rdf:li>public domain</rdf:li>
            <rdf:li>svg</rdf:li>
            <rdf:li>top view</rdf:li>
            <rdf:li>transport</rdf:li>
            <rdf:li>vehicle</rdf:li>
          </rdf:Bag>
        </dc:subject>
      </cc:Work>
      <cc:License
         rdf:about="http://creativecommons.org/publicdomain/zero/1.0/">
        <cc:permits
           rdf:resource="http://creativecommons.org/ns#Reproduction" />
        <cc:permits
           rdf:resource="http://creativecommons.org/ns#Distribution" />
        <cc:permits
           rdf:resource="http://creativecommons.org/ns#DerivativeWorks" />
      </cc:License>
    </rdf:RDF>
  </metadata>
  <path
     style="fill:#ffffff"
     d="m 173.36417,724.51858 c -1.33981,-0.1423 -9.01328,-0.89768 -17.05216,-1.67862 -27.40497,-2.66228 -53.13271,-6.71909 -70.864445,-11.17409 -11.759582,-2.95452 -24.837199,-8.51769 -24.835981,-10.56514 0.0022,-3.68425 5.353072,-54.99786 8.397865,-80.53344 3.591235,-30.1184 8.858582,-65.3923 11.842517,-79.3059 l 0.69737,-3.25173 5.017023,0.85288 c 13.923801,2.367 57.891701,4.08185 87.841821,3.42604 41.28379,-0.90398 67.89038,-2.6658 102.98955,-6.81967 1.22411,-0.14487 1.54468,0.74091 2.96389,8.18964 3.44786,18.09615 9.0963,61.1789 12.68391,96.74493 2.11345,20.95184 4.19776,46.11444 4.2031,50.74141 0.004,3.9213 -0.12573,4.2294 -2.85214,6.7464 -9.65095,8.90972 -36.95591,17.23914 -73.71654,22.48738 -19.11688,2.72927 -41.86084,4.71926 -47.31578,4.13991 z"
     id="path3389"
     inkscape:connector-curvature="0" />
  <path
     style="fill:#ffffff"
     d="m 36.946992,550.90065 c 0.0012,-27.10224 5.121115,-229.98242 6.151936,-243.77519 l 0.459991,-6.15487 7.821368,36.08316 7.821368,36.08315 -0.645166,62.98861 c -0.354841,34.64373 -0.868242,66.37697 -1.14089,70.5183 -0.447749,6.80097 -0.735466,7.97977 -2.972894,12.18012 -1.362442,2.55773 -5.856372,11.51121 -9.986509,19.8966 -7.03249,14.27804 -7.509332,15.05149 -7.509204,12.18012 z"
     id="path3391"
     inkscape:connector-curvature="0" />
  <path
     style="fill:#ffffff"
     d="M 67.242672,356.60674 C 67.047422,355.74543 63.30993,339.69378 58.937135,320.9364 51.678776,289.80121 47.407249,270.10007 46.458571,263.38276 l -0.362831,-2.56911 9.519694,-3.13683 c 31.8743,-10.50288 63.379716,-17.15785 98.260556,-20.75583 13.0367,-1.34474 57.04844,-1.10663 71.68869,0.38785 24.76072,2.52757 42.67555,6.49063 68.73066,15.20435 15.52051,5.19059 16.87817,5.77358 16.87817,7.24758 0,2.87745 -3.43434,32.33947 -5.2651,45.16747 -2.46413,17.26602 -5.41842,31.00414 -8.62461,40.10638 -3.31437,9.40937 -5.76184,13.41558 -7.91694,12.95905 -0.83027,-0.17589 -11.06227,-2.53481 -22.73778,-5.24206 -23.7899,-5.51624 -41.56872,-9.10356 -56.02855,-11.30514 -12.6012,-1.9186 -38.29122,-2.6216 -50.98135,-1.39509 -17.24709,1.66695 -41.59509,6.28479 -75.581335,14.33474 -8.792771,2.08265 -16.088852,3.78664 -16.213514,3.78664 -0.124663,0 -0.386409,-0.70471 -0.581659,-1.56602 z"
     id="path3393"
     inkscape:connector-curvature="0" />
  <path
     style="fill:#ffffff"
     d="m 313.27085,528.87661 -9.95037,-20.0184 -0.56997,-10.7881 c -0.31349,-5.93346 -0.79029,-37.76604 -1.05955,-70.73908 l -0.48956,-59.95098 7.59608,-34.87458 c 4.17784,-19.18101 7.7831,-34.87699 8.01169,-34.87994 0.99948,-0.0129 2.94532,70.94463 6.12655,223.4128 0.31549,15.12075 0.5088,27.57425 0.42956,27.67447 -0.0792,0.10021 -4.62173,-8.82607 -10.09443,-19.83619 z"
     id="path3395"
     inkscape:connector-curvature="0" />
  <path
     style="fill:#000000;stroke:#000000;stroke-opacity:1"
     d="m 131.25577,781.58511 c -41.772364,-2.45913 -60.757407,-6.07698 -87.435311,-16.66206 -5.215405,-2.06929 -9.957439,-3.7624 -10.537855,-3.7624 -1.883932,0 -4.791022,-13.41358 -7.089642,-32.71232 C 19.90122,675.62422 15.839686,549.24823 17.444564,456.239 c 0.864081,-50.07703 2.072457,-72.38865 4.557273,-84.14611 2.503165,-11.84428 3.700806,-37.16558 2.468967,-52.20051 -0.454775,-5.55065 -2.04565,-18.54857 -3.535279,-28.88427 -3.704803,-25.70557 -5.258323,-40.18125 -6.983978,-65.07663 -1.937161,-27.94671 -1.945797,-45.94558 -0.02815,-58.67675 2.23847,-14.86112 1.762192,-26.18576 -2.170609,-51.61137 C 9.768542,102.81522 9.8001773,99.86565 12.033029,89.514158 13.06518,84.729112 15.039963,73.1406 16.421435,63.761909 20.524174,35.908787 22.641028,29.377256 29.741996,22.661456 42.070488,11.001682 65.652192,7.1410361 151.09196,2.7948169 c 42.77242,-2.17578206 107.44324,0.024279 134.36141,4.5708913 29.77185,5.0286108 41.9543,14.6941378 48.27345,38.3000258 0.9735,3.636635 3.63789,15.694952 5.92085,26.796259 2.28297,11.101307 4.6136,22.146363 5.1792,24.544573 0.93522,3.965514 0.91283,5.068514 -0.24723,12.180114 -4.43686,27.19981 -5.45353,45.33217 -3.22872,57.58422 1.64511,9.05956 2.17105,27.13488 1.21513,41.76041 -2.85412,43.66775 -3.46674,50.05512 -7.44308,77.60475 -3.72876,25.83429 -4.44754,33.69981 -4.4522,48.72047 -0.005,15.50324 0.78299,26.16577 2.77693,37.58436 1.6263,9.31332 2.49534,19.152 3.62713,41.0644 1.15715,22.40334 1.14803,146.21581 -0.0134,181.65776 -2.88616,88.07515 -6.94671,140.37704 -12.51404,161.18729 l -1.19379,4.46231 -4.52404,2.23014 c -18.40541,9.07301 -59.92638,15.93716 -110.66507,18.29496 -13.23422,0.61499 -67.68884,0.7901 -76.90875,0.24736 l 0,0 z m 79.34476,-9.97949 c 45.03511,-3.30832 81.1736,-10.71572 104.02666,-21.32272 6.20844,-2.88161 7.0044,-3.46507 7.94959,-5.82732 2.21842,-5.54439 3.98612,-19.07274 5.27467,-40.36748 3.61792,-59.79013 2.96085,-237.2183 -1.36735,-369.23157 -0.89172,-27.19775 -1.25007,-31.66831 -2.53845,-31.66831 -0.74252,0 -0.90836,0.58764 -0.63839,2.26203 1.35008,8.37355 4.24159,137.41458 4.78403,213.50006 0.14602,20.48 0.16151,34.10433 0.0345,30.27629 -0.12708,-3.82803 -0.866,-32.79932 -1.64204,-64.38062 -3.40075,-138.39408 -5.93863,-208.10637 -7.57611,-208.10589 -0.23431,7e-5 -1.98371,6.08975 -3.88756,13.53262 -1.90385,7.44286 -3.56959,13.42445 -3.70163,13.29241 -0.13204,-0.13205 0.73344,-8.96225 1.92329,-19.62268 1.18986,-10.66042 2.22918,-21.67716 2.30962,-24.48163 l 0.14624,-5.09902 -9.04808,-3.42871 c -19.52337,-7.39824 -40.28044,-13.49438 -55.33255,-16.25059 -30.9433,-5.66605 -74.54994,-6.79014 -107.53304,-2.77197 -31.95209,3.89257 -70.576911,13.18041 -97.322357,23.40241 l -5.449467,2.08277 0.4657,3.58207 c 0.906224,6.97052 3.983961,22.04756 10.86403,53.2201 3.828867,17.34803 6.861786,31.84123 6.739817,32.20714 -0.121969,0.3659 -3.94602,-13.67133 -8.497892,-31.19385 -4.551871,-17.52252 -8.506271,-32.30323 -8.787554,-32.84602 -0.331888,-0.64044 -0.661262,-0.0296 -0.938254,1.74002 -1.380134,8.8173 -3.909705,82.40441 -6.673213,194.12876 -0.748025,30.24149 -1.562045,62.8146 -1.808932,72.3847 -0.306953,11.89838 -0.222915,17.18009 0.265781,16.70416 0.393067,-0.38281 4.759503,-7.74308 9.703193,-16.35616 9.310115,-16.22044 15.64585,-26.6846 17.316556,-28.60021 0.625166,-0.7168 1.204842,-4.27957 1.642018,-10.09209 0.808482,-10.74929 2.074999,-84.08949 2.084802,-120.72471 l 0.007,-26.13172 18.966183,-4.65786 c 53.585126,-13.15985 71.417566,-16.14152 96.570936,-16.14711 24.90656,-0.006 41.54658,2.73578 93.18915,15.35227 11.63386,2.8422 21.50551,5.16763 21.93701,5.16763 0.4315,0 1.27756,-0.81253 1.88013,-1.80563 1.00419,-1.65497 1.1326,3.35368 1.5391,60.03058 0.24393,34.00992 0.76972,68.54404 1.16843,76.7425 l 0.72492,14.90628 4.46231,7.01793 c 2.45427,3.85986 8.69847,14.3782 13.87599,23.37409 5.17753,8.99588 9.79104,16.78898 10.25226,17.31799 0.64614,0.7411 0.73335,11.76174 0.38003,48.02446 -0.69827,71.66511 -2.42486,109.4288 -5.77715,126.35624 -1.58565,8.00672 -1.8059,8.31213 -8.05464,11.16847 -30.05669,13.73925 -75.46527,21.38286 -133.14152,22.41163 -52.74427,0.94079 -98.940738,-4.35679 -132.416653,-15.18492 -9.757825,-3.15632 -9.800327,-3.19947 -11.568266,-11.75861 -2.497732,-12.09229 -4.176664,-35.74768 -5.382588,-75.83808 -0.911877,-30.31494 -0.442073,-171.2708 0.723772,-217.1541 1.90461,-74.95834 2.517664,-94.98251 3.96875,-129.63125 0.320076,-7.64272 0.232389,-10.96211 -0.289583,-10.96211 -1.044756,0 -1.44128,4.56681 -2.235998,25.75225 -5.415168,144.35645 -6.346639,314.64121 -2.067316,377.93165 1.433446,21.20044 3.462364,34.04183 6.089186,38.53957 1.318196,2.25701 3.31606,3.08734 17.014726,7.07101 21.94389,6.3814 53.62251,11.00352 87.8836,12.82267 14.0025,0.74347 53.68967,0.35559 67.51265,-0.65982 z M 193.20037,728.4095 c 37.19849,-3.23066 73.37199,-10.55334 92.17295,-18.6589 7.55466,-3.25696 12.00863,-6.04224 15.67742,-9.80388 l 2.75337,-2.82296 -1.20042,-16.06247 c -3.31407,-44.34449 -11.32911,-111.764 -16.80811,-141.38347 -0.97149,-5.25184 -1.76634,-9.91161 -1.76634,-10.35505 0,-0.55884 -0.90782,-0.66095 -2.95802,-0.33277 -11.42622,1.82908 -41.85535,4.58427 -67.33866,6.09715 -20.29172,1.20467 -92.23686,1.20138 -108.92505,-0.005 -11.802971,-0.85322 -24.626067,-2.36945 -27.92462,-3.30188 -1.396402,-0.39473 -1.57477,0.10414 -3.293168,9.21049 -6.120515,32.43452 -12.35293,80.55012 -18.556613,143.26102 l -1.996724,20.18419 1.518685,1.29109 c 10.90834,9.2736 54.34081,17.94647 118.4611,23.65512 3.25547,0.28981 8.62678,0.0306 20.1842,-0.97281 z M 48.962805,35.16831 c 10.26968,-4.029653 24.86203,-8.018831 35.859075,-9.802962 l 9.54553,-1.548641 4.579961,-4.561637 c 2.518969,-2.508899 4.760369,-5.266342 4.980889,-6.127651 0.40006,-1.562652 0.38201,-1.566015 -8.408931,-1.566015 -13.951364,0 -42.229635,3.583472 -46.758192,5.925279 -5.451391,2.819024 -12.510289,13.099147 -12.510289,18.219179 0,3.681107 1.023622,4.618068 3.593402,3.289183 1.096876,-0.567217 5.200225,-2.289247 9.118555,-3.826735 z M 314.88252,28.852352 c 1.29434,-2.055499 -0.65647,-6.513563 -4.63225,-10.585803 -5.96365,-6.108352 -8.30051,-6.935277 -26.91703,-9.524913 -12.97158,-1.8044022 -36.19235,-2.6678811 -36.19235,-1.3458358 0,1.503317 3.89599,7.0923068 7.20074,10.3298158 l 3.09516,3.032181 12.42622,1.299232 c 20.61349,2.155259 37.16985,5.204913 41.19808,7.58862 1.5354,0.908572 2.93238,0.61857 3.82143,-0.793297 z M 123.59969,19.628446 c 4.97645,-0.581244 14.37254,-1.433938 20.8802,-1.894878 13.5806,-0.961917 70.99451,-1.228205 83.69481,-0.388181 7.24584,0.479255 8.52609,0.412291 8.52609,-0.445963 0,-1.523251 -21.09811,-2.108239 -59.41366,-1.647366 -30.34499,0.365 -45.03765,1.165999 -59.25549,3.230426 -2.67963,0.389082 -5.10695,0.713625 -5.39405,0.721207 -0.28711,0.0076 -0.52201,0.504697 -0.52201,1.1047 0,0.710969 0.42421,0.966567 1.21801,0.733887 0.66991,-0.196365 5.28965,-0.832589 10.2661,-1.413832 z m 2.08802,-4.233239 c 18.00934,-2.229333 30.42412,-2.783773 61.9446,-2.766422 20.32389,0.01118 35.42335,0.339586 41.34551,0.899224 5.85709,0.55349 9.57398,0.636826 9.98689,0.223916 0.41291,-0.412911 -0.0803,-0.806864 -1.32512,-1.058508 -3.60628,-0.729003 -21.23076,-1.765503 -37.47916,-2.204157 -32.82718,-0.8862266 -86.85998,2.724269 -87.90648,5.87395 -0.26021,0.783162 0.27359,0.876482 2.72707,0.476747 1.67784,-0.273362 6.49585,-0.9235 10.70669,-1.44475 z m -6.26406,-2.450384 c 18.81323,-3.1379369 59.8677,-4.7620735 89.31755,-3.5334497 11.74114,0.4898307 23.29743,1.1064797 25.68065,1.3703297 3.03628,0.336151 4.42582,0.238206 4.64281,-0.327263 0.39954,-1.0411861 -2.51943,-1.4264481 -18.44707,-2.4347483 -16.8028,-1.063702 -67.841,-0.4298911 -83.09776,1.031938 -17.95274,1.7201433 -25.40425,2.8808283 -25.40425,3.9570893 0,0.823644 2.09681,0.805311 7.30807,-0.06389 z m 8.70009,-3.8029491 C 145.2514,7.150166 160.90089,6.441767 187.63231,6.4481253 c 23.66175,0.00563 46.05813,0.9326309 49.93848,2.0669904 0.76085,0.2224208 1.21802,-0.020003 1.21802,-0.6458908 0,-1.3250023 -2.3559,-1.6497666 -19.08063,-2.6303035 -15.90625,-0.93255 -64.68716,-0.4924596 -78.36032,0.7069491 -9.19761,0.8068147 -24.1037,2.575558 -27.31826,3.2415633 -3.56415,0.7384332 -2.13997,1.8998622 1.74002,1.4189982 2.00972,-0.249073 7.56907,-0.9081237 12.35412,-1.4645581 z"
     id="path3397"
     inkscape:connector-curvature="0" />
</svg>
