<?xml version="1.0" encoding="UTF-8" standalone="no"?>
<!-- Created with Inkscape (http://www.inkscape.org/) -->

<svg
   xmlns:dc="http://purl.org/dc/elements/1.1/"
   xmlns:cc="http://creativecommons.org/ns#"
   xmlns:rdf="http://www.w3.org/1999/02/22-rdf-syntax-ns#"
   xmlns:svg="http://www.w3.org/2000/svg"
   xmlns="http://www.w3.org/2000/svg"
   xmlns:sodipodi="http://sodipodi.sourceforge.net/DTD/sodipodi-0.dtd"
   xmlns:inkscape="http://www.inkscape.org/namespaces/inkscape"
   id="svg2"
   version="1.1"
   inkscape:version="0.48.5 r10040"
   width="174.11606"
   height="170.2809"
   sodipodi:docname="trunk.svg">
  <metadata
     id="metadata8">
    <rdf:RDF>
      <cc:Work
         rdf:about="">
        <dc:format>image/svg+xml</dc:format>
        <dc:type
           rdf:resource="http://purl.org/dc/dcmitype/StillImage" />
        <dc:title />
      </cc:Work>
    </rdf:RDF>
  </metadata>
  <defs
     id="defs6">
    <clipPath
       clipPathUnits="userSpaceOnUse"
       id="clipPath2993">
      <rect
         style="opacity:0.50406506;color:#000000;fill:none;stroke:#000000;stroke-width:4;stroke-linecap:butt;stroke-linejoin:round;stroke-miterlimit:10;stroke-opacity:1;stroke-dasharray:none;stroke-dashoffset:0;marker:none;visibility:visible;display:inline;overflow:visible;enable-background:accumulate"
         id="rect2995"
         width="174.11606"
         height="170.2809"
         x="331.35742"
         y="186.0118" />
    </clipPath>
  </defs>
  <sodipodi:namedview
     pagecolor="#ffffff"
     bordercolor="#666666"
     borderopacity="1"
     objecttolerance="10"
     gridtolerance="10"
     guidetolerance="10"
     inkscape:pageopacity="0"
     inkscape:pageshadow="2"
     inkscape:window-width="1920"
     inkscape:window-height="1178"
     id="namedview4"
     showgrid="false"
     inkscape:zoom="41.719299"
     inkscape:cx="9.7490392"
     inkscape:cy="131.31295"
     inkscape:window-x="1912"
     inkscape:window-y="-8"
     inkscape:window-maximized="1"
     inkscape:current-layer="svg2"
     fit-margin-top="0"
     fit-margin-left="0"
     fit-margin-right="0"
     fit-margin-bottom="0" />
  <path
     style="fill:#000000"
     d="M 146.5625 14.1875 C 133.74386 14.33675 114.60758 21.78225 91.9375 35.46875 C 86.59346 38.69509 81.70374 41.34375 81.0625 41.34375 C 80.42125 41.34375 73.320959 38.36948 65.28125 34.71875 C 33.88325 20.46133 27.65308 18.26034 11.65625 15.90625 C 7.6704615 15.3197 3.8187241 14.815204 0 14.34375 L 0 34.3125 C 8.161811 39.642539 24.15625 51.287474 24.15625 51.9375 C 24.15625 52.106872 14.044797 52.254668 0 52.3125 L 0 143.34375 L 27.65625 143.34375 L 30.03125 147.84375 C 33.22255 153.85943 40.9458 160.87924 47.9375 164.15625 C 53.05328 166.55402 54.81489 166.84375 64.65625 166.84375 C 74.706659 166.84375 76.13858 166.61685 81.40625 164.03125 C 88.24442 160.67478 96.09974 153.30749 99.0625 147.5 C 100.72571 144.23984 101.73763 143.34375 103.75 143.34375 C 107.74749 143.34375 142.65756 137.52554 152.125 135.28125 C 164.67726 132.30569 165.15625 131.85824 165.15625 122.78125 C 165.15625 117.23791 165.68133 114.23484 167.15625 111.34375 C 169.54923 106.65313 169.65148 103.50629 167.625 98.65625 C 166.4437 95.82913 166.16984 91.50747 166.375 78.9375 C 166.6951 59.32526 166.09299 57.57857 157.78125 54.46875 C 150.38825 51.70268 135.12467 49.60727 113.15625 48.3125 C 102.99321 47.71351 94.53576 47.067 94.34375 46.875 C 94.15175 46.68299 97.057447 44.74563 100.8125 42.5625 C 119.25217 31.84197 138.04656 24.34375 146.5 24.34375 C 150.76034 24.34375 151.29648 24.65267 154.6875 29.09375 C 156.68229 31.70625 158.60085 33.8336 158.96875 33.8125 C 160.57416 33.72028 167.15625 29.87505 167.15625 29.03125 C 167.15625 27.34623 160.06721 18.43405 157 16.25 C 154.54033 14.49856 152.63975 14.1167 146.5625 14.1875 z M 63.46875 98.875 C 71.066955 98.615993 78.825424 101.41227 84.9375 107.65625 C 100.40952 123.46218 93.74537 149.54054 72.59375 155.90625 C 50.085171 162.68034 28.80166 140.15253 37.0625 118.28125 C 41.640128 106.16159 52.363682 99.253548 63.46875 98.875 z "
     id="path2984" />
  <path
     style="fill:none;stroke:none"
     d="M 0.47939444,34.612273 24.353237,51.966352 -0.38351555,52.158109 0,143.43481 l 27.421362,0 4.410429,7.09504 6.711522,7.67031 5.752733,3.83515 9.012616,4.41043 22.052144,0.38352 8.6291,-3.83516 8.053826,-6.328 5.17746,-6.32801 3.068128,-5.17746 1.72582,-1.15055 1.72582,-0.76703 0.47939,0.0959 2.68461,-0.19176 13.51892,-2.06139 10.78638,-1.72582 8.43734,-1.53406 6.75946,-1.24643 6.71152,-1.51009 3.28386,-0.81497 2.06139,-0.55131 1.31834,-0.40748 1.582,-0.59925 1.00673,-0.50336 0.81497,-0.59924 0.52733,-0.55131 0.50337,-0.69512 0.40748,-0.91085 0.43146,-1.41421 0.11984,-2.30109 0.024,-3.45164 -0.024,-1.07864 0.0719,-1.41422 0.19176,-1.74978 0.19176,-1.62995 0.52733,-2.39697 0.67115,-2.06139 1.29437,-2.49286 0.57527,-1.53406 0.4028,-2.17316 0.017,-1.25423 -0.0678,-0.69492 -0.0847,-0.79661 -0.15255,-0.8644 -0.35593,-1.35594 -0.32203,-0.932201 -0.59322,-1.457627 -0.33899,-1.135593 L 167,96.43344 l -0.49152,-4.050848 -0.13559,-8.40678 0.0678,-15.525424 -0.40678,-5.355932 -0.94915,-3.593221 -1.76271,-2.305084 -3.93221,-2.440678 -6.64406,-1.762712 -9.96611,-2.033899 -9.42372,-1.152542 -24.94916,-2.033898 -14.033896,-0.949153 2.237288,-1.830508 8.610168,-4.881356 L 116,34.416489 l 9.62712,-4.135593 7.72882,-3.050848 7.32203,-2.169491 4.27119,-0.745763 4.94915,0.135593 3.25424,2.576271 2.77966,3.322034 c 0,0 0.81356,1.152543 1.01695,1.559322 0.20339,0.40678 1.76271,1.898306 1.76271,1.898306 l 2.10169,-0.542373 3.72882,-1.898305 2.71186,-2.372882 0,-0.745763 -6.77966,-8.813559 -4.54237,-4.067797 -3.66102,-1.220339 -8.0678,0 -6.71186,1.084746 -6.37288,1.694915 -3.38983,0.949153 -9.69492,3.661017 -4.61017,2.169491 -6.23729,2.983051 -6.64406,3.525424 -8.542378,5.084746 -6.644068,3.864407 -2.711864,1.423729 -1.288136,0.474576 -0.813559,0 -0.0339,0.118644 -1.220339,-0.449153 -2.855933,-1.161017 -4,-1.694915 -3.864407,-1.720339 -7.677966,-3.466102 -9.144068,-4.076271 -6.432204,-2.788136 -4.177966,-1.745762 -3.127118,-1.254238 -2.542373,-0.983051 -2.788136,-1.016949 -2.677966,-0.906779 -2.974577,-0.889831 -1.822034,-0.508475 -2.745762,-0.68644 -2.220339,-0.474577 -2.661017,-0.516949 -2.677967,-0.423728 -0.5,-0.11017 -5.254237,-0.788136 -5.0084747,-0.669491 -4.16949161,-0.525424 0.08183775,19.977398 z"
     id="PapyrusPath"
     inkscape:connector-curvature="0"
     sodipodi:nodetypes="cccccccccccccccccccccccccccccccccccccccccccccccccccccccccccccccccccccccccccscccccccccccccccccccccccccccccccccccccccccccccc" />
</svg>
