<?xml version="1.0" encoding="UTF-8" standalone="no"?>
<!-- Created with Inkscape (http://www.inkscape.org/) -->

<svg
   xmlns:dc="http://purl.org/dc/elements/1.1/"
   xmlns:cc="http://creativecommons.org/ns#"
   xmlns:rdf="http://www.w3.org/1999/02/22-rdf-syntax-ns#"
   xmlns:svg="http://www.w3.org/2000/svg"
   xmlns="http://www.w3.org/2000/svg"
   xmlns:sodipodi="http://sodipodi.sourceforge.net/DTD/sodipodi-0.dtd"
   xmlns:inkscape="http://www.inkscape.org/namespaces/inkscape"
   id="svg2"
   version="1.1"
   inkscape:version="0.48.5 r10040"
   width="513.82568"
   height="180.15169"
   sodipodi:docname="windscreen.svg">
  <metadata
     id="metadata8">
    <rdf:RDF>
      <cc:Work
         rdf:about="">
        <dc:format>image/svg+xml</dc:format>
        <dc:type
           rdf:resource="http://purl.org/dc/dcmitype/StillImage" />
        <dc:title />
      </cc:Work>
    </rdf:RDF>
  </metadata>
  <defs
     id="defs6" />
  <sodipodi:namedview
     pagecolor="#ffffff"
     bordercolor="#666666"
     borderopacity="1"
     objecttolerance="10"
     gridtolerance="10"
     guidetolerance="10"
     inkscape:pageopacity="0"
     inkscape:pageshadow="2"
     inkscape:window-width="1920"
     inkscape:window-height="1018"
     id="namedview4"
     showgrid="false"
     fit-margin-top="0"
     fit-margin-left="0"
     fit-margin-right="0"
     fit-margin-bottom="0"
     inkscape:zoom="3.1057239"
     inkscape:cx="264.43447"
     inkscape:cy="58.360302"
     inkscape:window-x="-8"
     inkscape:window-y="-8"
     inkscape:window-maximized="1"
     inkscape:current-layer="svg2" />
  <path
     style="fill:#000000"
     d="m 414.26762,178.02473 c -15.40035,0.0284 -114.62699,0.27184 -220.50369,0.54083 C 87.887249,178.83459 1.1196676,178.93089 0.94708609,178.77961 0.42183854,178.31916 39.654976,34.17305 40.592875,33.145946 42.321752,31.252649 24.063382,103.15582 21.113264,114.33151 c -1.641742,6.21925 -4.640091,21.23595 -7.509926,31.98642 -7.0589877,26.44307 -8.3544041,27.7999 -7.8221288,28.32299 0.6746184,0.66292 322.5795608,1.15437 324.2539908,0.495 0.83076,-0.32713 1.68304,-2.69249 2.05614,-5.7064 0.81006,-6.54444 4.77286,-18.01433 8.62884,-24.97538 6.30851,-11.38849 18.07419,-20.30948 31.54417,-23.91747 8.36997,-2.24195 25.30753,-2.39693 33.49859,-0.30651 13.43751,3.42927 25.16697,11.88631 32.17422,23.19786 3.48682,5.62857 9.09573,20.97736 10.2517,28.05367 l 0.58621,3.58859 16.64884,0.51115 c 27.63191,0.84833 45.33003,0.45699 45.3173,-1.00201 -0.006,-0.6946 -6.71808,-20.77427 -14.91558,-44.62156 -8.19752,-23.84727 -18.16864,-53.680576 -22.15806,-66.296243 -10.52646,-33.287852 -15.21629,-45.46768 -18.4924,-48.026276 -2.00356,-1.564752 -195.83987,-0.843112 -195.81861,0.72902 0.009,0.641057 0.49909,2.848901 1.08985,4.906325 l 1.07412,3.740769 12.95249,-0.113037 c 15.66807,-0.136728 16.96815,0.5586 17.01778,9.101842 0.0573,9.848413 0.42474,9.746664 -36.36463,10.06772 -24.31003,0.212152 -31.30442,-0.02148 -34.04135,-1.13708 -3.94102,-1.606416 -5.08288,-4.456544 -4.29751,-10.726787 0.84503,-6.746278 1.97155,-7.275429 16.55046,-7.773914 l 12.84834,-0.439313 0.61316,-4.061839 c 0.33725,-2.234006 0.47072,-4.202136 0.29586,-4.373706 -0.17455,-0.17153 -44.6277,-0.06103 -98.78478,0.245559 l -98.467435,0.557433 -2.36848,7.020936 c -1.302663,3.861516 -1.855291,6.04116 -2.137756,6.660651 -0.182,0.399156 -1.607767,4.697859 -2.696535,8.828387 C -32.239602,322.94452 37.99775,48.669549 36.93666,47.626821 36.179117,46.882385 45.747346,16.211456 47.742352,12.989207 50.825023,8.0102067 56.323211,3.4152366 60.95061,1.9507419 64.318799,0.88476648 190.53993,0.24843042 385.21573,0.31597984 c 50.11905,0.0173916 53.46006,0.30522775 63.95752,5.51006286 10.19238,5.0535733 8.94284,2.1471501 38.63404,89.8614623 14.82316,43.790865 26.95369,80.182275 26.95675,80.869805 0.006,1.27153 -0.77983,1.28302 -100.49641,1.46742 z m 25.92389,-8.31693 c -0.87249,-7.17437 -3.10776,-15.13332 -4.94099,-17.59331 -1.32139,-1.77311 -1.99437,-1.44603 -12.54575,6.0976 -9.16928,6.55547 -11.05029,8.32768 -10.59113,9.97851 0.30705,1.10406 0.57526,3.24476 0.59595,4.75714 l 0.0376,2.74978 14.07142,-0.1228 14.07141,-0.1228 z m -74.47358,2.83425 c -0.0123,-1.4111 0.42644,-3.42216 0.97498,-4.46903 0.86764,-1.65571 -0.40254,-2.99686 -9.76123,-10.30682 -9.74374,-7.61067 -10.87959,-8.24129 -12.04049,-6.68482 -2.06389,2.76715 -4.23965,10.33885 -5.04459,17.55533 l -0.74777,6.70347 13.32072,-0.11625 13.32073,-0.11623 z m 19.49213,-18.87767 c 4.33143,-0.96441 6.12099,-0.86 11.30166,0.65938 l 6.15533,1.80517 12.14884,-6.43482 c 6.68185,-3.53912 12.33223,-6.58825 12.5564,-6.77579 0.88037,-0.73652 -3.76872,-4.82659 -10.04751,-8.83941 -16.16755,-10.33281 -33.1849,-11.59446 -49.40109,-3.66255 -8.03621,3.93077 -16.53935,11.09745 -14.96381,12.61192 2.46502,2.36943 24.26503,12.90041 25.60894,12.37094 0.8222,-0.32395 3.81076,-1.10462 6.64124,-1.73482 z"
     id="path2987"
     inkscape:connector-curvature="0"
     sodipodi:nodetypes="sscssssssssssscssssscscsssssscssscssssssssscsssssscccsssssscccssccscssssscc" />
  <path
     style="fill:none;stroke:none"
     d="M 42.97433,25.387179 37.794643,41.267759 0.91071429,178.33026 496.76702,177.84728 514.55357,176.96419 489.40081,100.37106 460.71331,17.951421 455.28838,8.7745729 448.28518,5.152229 441.12099,2.415347 436.53269,1.4493886 427.0341,0.48343024 262.05804,-0.16974123 60.362443,2.3899672 55.553572,4.3838302 50.943081,8.5389641 46.674107,14.401687 z"
     id="PapyrusPath"
     inkscape:connector-curvature="0"
     sodipodi:nodetypes="cccccccccccccccccc" />
</svg>
